<svg width="56" height="55" viewBox="0 0 56 55" fill="none" xmlns="http://www.w3.org/2000/svg">
<g clip-path="url(#clip0_28_194)">
<path d="M9.57611 33.2936C8.41812 36.783 7.63069 40.6739 7.26786 44.8967C7.22926 45.3367 7.5535 45.7227 7.99353 45.769C8.03213 45.769 9.02799 45.8694 10.7109 45.8694C12.6718 45.8694 15.7057 45.7304 19.2106 45.1128C20.8472 48.3552 23.0319 51.613 25.7185 54.8168C25.8806 55.0098 26.1045 55.1024 26.3361 55.1024C26.5136 55.1024 26.6989 55.0407 26.8456 54.9171C27 54.7936 30.5125 51.8755 34.0946 46.8189C37.4759 48.0078 41.2124 48.8261 45.2499 49.2276C45.273 49.2276 45.3039 49.2276 45.3271 49.2276C45.7208 49.2276 46.0682 48.9342 46.1222 48.5405C46.1531 48.3321 46.8247 43.399 45.852 36.9066C49.1484 35.2545 52.4526 33.0466 55.6872 30.3292C56.0269 30.0436 56.0732 29.5418 55.7876 29.2021C55.664 29.0477 52.7459 25.5428 47.6894 21.9531C48.8782 18.5795 49.6965 14.8353 50.098 10.7978C50.1443 10.3732 49.8355 9.9872 49.4109 9.92544C49.3414 9.91772 47.589 9.67068 44.8098 9.67068C42.5788 9.67068 40.34 9.8328 38.1553 10.1493C36.5881 6.86063 34.4883 3.58738 31.8867 0.414495C31.6165 0.0825386 31.1301 0.0207792 30.7827 0.283257C30.6129 0.414495 26.6526 3.41755 22.7463 8.70569C19.2646 7.5477 15.3661 6.77571 11.1355 6.40515C10.7032 6.36655 10.3095 6.69079 10.2632 7.13083C10.2477 7.32383 9.83087 11.8631 10.8576 17.9696C7.61525 19.529 4.39604 21.6057 1.26947 24.1687C0.937518 24.4389 0.87576 24.9252 1.13824 25.2726C1.26948 25.4425 4.27252 29.4028 9.56839 33.3091L9.57611 33.2936ZM8.95079 44.2173C9.31363 40.6276 9.97755 37.2848 10.9425 34.2664C11.0738 34.359 11.2127 34.4439 11.3517 34.5288C11.5524 34.6601 11.7531 34.7913 11.9538 34.9225C12.2704 35.1233 12.5869 35.324 12.9034 35.517C13.0964 35.6328 13.2971 35.7563 13.4978 35.8721C13.8452 36.0728 14.1926 36.2658 14.5477 36.4588C14.7176 36.5515 14.8874 36.6441 15.0573 36.7367C15.5745 37.0069 16.0994 37.2694 16.6244 37.5164C18.3691 38.3348 20.1447 39.0064 21.9048 39.5005C24.0818 40.1258 26.2897 40.5118 28.4976 40.6584C28.4282 40.6893 28.351 40.7202 28.2815 40.7511C27.6485 41.0213 27.0077 41.2838 26.3438 41.5308C24.2208 42.3182 21.982 42.9358 19.5117 43.4145C15.8833 44.1015 12.7258 44.2482 10.7187 44.2482C9.98527 44.2482 9.39084 44.2328 8.95852 44.2096L8.95079 44.2173ZM16.9332 30.7383C16.8174 27.743 17.1725 24.7245 17.9908 21.7601C20.0829 19.4904 22.5301 17.5604 25.2707 16.0087C28.3355 15.9547 31.3617 16.3561 34.3725 17.1976C36.6036 19.2743 38.5027 21.6983 40.0312 24.3926C40.0852 27.4497 39.6761 30.5376 38.8115 33.5947C36.7348 35.7331 34.3107 37.5859 31.6165 39.099C28.5362 39.2225 25.5177 38.852 22.5224 38.0105C20.3377 35.903 18.4617 33.4558 16.9332 30.7306V30.7383ZM26.421 53.1416C24.159 50.3778 22.2908 47.5755 20.8472 44.7886C21.0093 44.7577 21.1637 44.7114 21.3181 44.6805C21.5497 44.6265 21.7813 44.5724 22.0052 44.5184C22.3603 44.4335 22.7077 44.3409 23.0551 44.2482C23.2713 44.1942 23.4797 44.1324 23.6959 44.0784C24.0664 43.9703 24.437 43.8622 24.7998 43.7464C24.9774 43.6924 25.1472 43.6383 25.3248 43.5843C25.8574 43.4145 26.3824 43.2292 26.8996 43.0362C28.3278 42.5112 29.6942 41.9168 30.9912 41.2606C31.4235 41.0444 31.8481 40.8206 32.2572 40.589C34.2258 39.5005 36.0632 38.2344 37.7384 36.8139C37.7075 36.8834 37.6843 36.9606 37.6535 37.0301C37.4219 37.6091 37.1826 38.1804 36.9278 38.7516C36.673 39.3152 36.4028 39.871 36.1172 40.4346C35.2603 42.1098 34.2567 43.7773 33.1296 45.3985C30.4122 49.3279 27.6253 52.0453 26.4364 53.1261L26.421 53.1416ZM44.6168 47.5369C41.1737 47.1432 37.9545 46.4484 35.0287 45.4525C35.1291 45.2981 35.2217 45.1437 35.3221 44.9893C35.4687 44.7654 35.6077 44.5416 35.7467 44.3254C35.9474 44.0012 36.1404 43.6769 36.3334 43.3527C36.4646 43.1365 36.5881 42.9204 36.7116 42.6965C36.9124 42.3414 37.1054 41.9863 37.2906 41.6234C37.391 41.4382 37.4914 41.2529 37.5917 41.0599C37.8696 40.5118 38.1321 39.9714 38.3791 39.4233C38.5721 38.9987 38.7574 38.5741 38.935 38.1418C39.4676 36.8525 39.9309 35.5479 40.3091 34.2432C40.9576 31.9967 41.3745 29.727 41.552 27.4574C41.5829 27.5269 41.6061 27.5886 41.6369 27.6581C41.9149 28.322 42.1851 28.9936 42.4321 29.6807C42.6251 30.2211 42.8027 30.7692 42.9725 31.3251C43.482 33.0003 43.8834 34.7527 44.1768 36.5669C45.0028 41.6234 44.7635 45.854 44.6168 47.5292V47.5369ZM54.0197 29.619C51.2328 31.8963 48.3996 33.7877 45.5741 35.2468C45.5432 35.1001 45.5124 34.9534 45.4815 34.799C45.4352 34.5751 45.3888 34.3436 45.3425 34.1197C45.2653 33.7568 45.1804 33.4017 45.0955 33.0466C45.0414 32.8382 44.9951 32.622 44.9411 32.4136C44.8407 32.0276 44.7326 31.6493 44.6246 31.2787C44.5705 31.1089 44.5242 30.9313 44.4779 30.7615C44.308 30.2211 44.1382 29.6807 43.9529 29.1558C43.289 27.2798 42.4861 25.4734 41.552 23.7827C40.4558 21.8141 39.1743 19.9845 37.7229 18.317C37.7924 18.3479 37.8696 18.371 37.9391 18.4019C38.5799 18.6567 39.2129 18.9191 39.8536 19.2125C41.2046 19.8301 42.5479 20.5558 43.8757 21.3586C44.694 21.8527 45.5046 22.3622 46.3075 22.9181C50.2369 25.6355 52.9544 28.4224 54.0351 29.6112L54.0197 29.619ZM48.415 11.4231C48.0213 14.8662 47.3188 18.0854 46.3307 21.0112C46.184 20.9109 46.0296 20.8183 45.8752 20.7256C45.6667 20.5944 45.466 20.4631 45.2576 20.3319C44.9333 20.1312 44.6091 19.9305 44.2772 19.7375C44.0764 19.6217 43.8757 19.4981 43.675 19.3823C43.3199 19.1816 42.9571 18.9886 42.6019 18.7956C42.4321 18.703 42.2623 18.6104 42.0924 18.5254C41.5597 18.2552 41.0348 17.9928 40.5021 17.7457C38.6802 16.912 36.8352 16.2172 35.0133 15.6999C32.8054 15.0669 30.5743 14.6655 28.3432 14.4879C28.4127 14.457 28.4822 14.4262 28.5517 14.403C29.1461 14.1482 29.7483 13.9089 30.3581 13.685C31.4544 13.2836 32.6046 12.9362 33.7781 12.6351C33.8398 12.6197 33.9016 12.5965 33.9711 12.5811C35.214 12.2646 36.5032 12.0098 37.8156 11.8091C40.1084 11.454 42.463 11.2687 44.8176 11.2687C46.4233 11.2687 47.6739 11.3536 48.4228 11.4231H48.415ZM31.1456 2.0434C33.3226 4.78397 35.1213 7.57858 36.5032 10.3964C36.3179 10.4272 36.1404 10.4736 35.9551 10.5044C35.7003 10.5508 35.4533 10.6048 35.1985 10.6511C34.8125 10.736 34.4265 10.8209 34.0405 10.9136C33.8089 10.9676 33.5696 11.0217 33.338 11.0834C32.9212 11.1915 32.5197 11.3073 32.1106 11.4231C31.9176 11.4771 31.7246 11.5312 31.5316 11.5929C30.9449 11.7782 30.3581 11.9712 29.7946 12.1719C28.0113 12.8127 26.2743 13.6001 24.6454 14.4956C22.6459 15.6073 20.7932 16.912 19.1102 18.3942C19.1411 18.3247 19.1643 18.2552 19.1951 18.178C19.4576 17.5218 19.7432 16.8579 20.052 16.2172C20.2991 15.6922 20.5616 15.175 20.8395 14.65C21.21 13.963 21.6038 13.2836 22.0206 12.612C22.5456 11.7628 23.0937 10.9213 23.6881 10.103C26.6835 5.94196 29.8409 3.11647 31.1301 2.0434H31.1456ZM11.8226 8.07266C15.4201 8.43549 18.7551 9.09941 21.7736 10.0567C21.6887 10.1802 21.6115 10.3037 21.5343 10.4195C21.403 10.6202 21.2718 10.8132 21.1406 11.0139C20.9476 11.315 20.7546 11.6161 20.5693 11.9172C20.4535 12.1102 20.33 12.3032 20.2219 12.4962C20.0289 12.8281 19.8436 13.1601 19.6583 13.4998C19.5657 13.6696 19.4731 13.8317 19.3804 14.0016C19.1102 14.5034 18.8555 15.0129 18.6161 15.5224C17.7438 17.3443 17.0336 19.2279 16.4932 21.1193C15.891 23.2577 15.5127 25.427 15.366 27.5963C15.3352 27.5346 15.312 27.4651 15.2811 27.3956C15.0341 26.8243 14.7948 26.2454 14.5709 25.6509C14.3547 25.0719 14.1463 24.4852 13.9533 23.8908C13.3743 22.0998 12.9034 20.2084 12.5483 18.2552C11.6991 13.5538 11.7454 9.67068 11.8226 8.05722V8.07266ZM11.1741 19.5908C11.2127 19.7761 11.2591 19.9459 11.2977 20.1312C11.3517 20.3859 11.4135 20.6484 11.4675 20.9032C11.5601 21.2814 11.6528 21.652 11.7454 22.0226C11.8072 22.2619 11.8689 22.5012 11.9384 22.7405C12.0542 23.1419 12.17 23.5434 12.2935 23.9371C12.3553 24.1301 12.4093 24.3231 12.4711 24.5161C12.6641 25.1028 12.8571 25.6741 13.0732 26.2376C13.2817 26.7857 13.4978 27.3184 13.7217 27.8434C14.2467 29.0786 14.8179 30.2597 15.4355 31.3714C16.5472 33.3708 17.8364 35.2313 19.2878 36.9297C19.2183 36.8988 19.1488 36.8757 19.0793 36.8448C18.4849 36.6055 17.8827 36.3507 17.296 36.0728C16.7556 35.8181 16.223 35.5556 15.6903 35.2699C14.0923 34.4208 12.5174 33.4403 10.9889 32.3441C6.82782 29.3488 4.00232 26.199 2.92925 24.9021C5.63123 22.7559 8.39496 20.9726 11.1741 19.5985V19.5908Z" fill="#220F25"/>
<path d="M19.6118 27.8125C19.6118 27.8125 19.6504 27.8511 19.6736 27.8665C19.8126 27.9514 22.1903 29.3873 25.147 29.3873C25.7337 29.3873 26.3436 29.3256 26.9689 29.1943C25.672 32.7918 27.2314 36.4125 27.3163 36.59C27.3318 36.6209 27.3549 36.6441 27.3704 36.6749C27.3858 36.6981 27.4012 36.7213 27.4167 36.7521C27.4784 36.8293 27.5402 36.8988 27.6251 36.9451C27.6637 36.9683 27.71 36.9837 27.7564 36.9992C27.7795 37.0069 27.8027 37.0223 27.8258 37.0301C27.8953 37.0532 27.9725 37.0609 28.0497 37.0609C28.1501 37.0609 28.2504 37.0378 28.3431 36.9992C28.3508 36.9992 28.3662 36.9992 28.3739 36.9992C28.3739 36.9992 28.3817 36.9915 28.3894 36.9837C28.4743 36.9451 28.5515 36.8911 28.6133 36.8216C28.6287 36.8062 28.6364 36.7907 28.6519 36.7753C28.675 36.7444 28.7059 36.7135 28.7291 36.6827C28.8294 36.5128 30.8598 33.1392 30.0492 29.4028C31.0914 29.7811 32.1413 29.92 33.0985 29.92C35.4531 29.92 37.3213 29.1094 37.4449 29.0477C37.4449 29.0477 37.4603 29.0399 37.4603 29.0322C37.5452 28.9936 37.6224 28.9396 37.6842 28.8701C37.6996 28.8547 37.7073 28.8392 37.7228 28.8238C37.7459 28.7929 37.7768 28.7697 37.8 28.7311C37.8154 28.708 37.8154 28.6848 37.8231 28.6617C37.8463 28.6153 37.8617 28.5613 37.8772 28.5073C37.8926 28.4532 37.9003 28.4069 37.9081 28.3529C37.9081 28.3066 37.9081 28.2602 37.9081 28.2062C37.9081 28.1444 37.8926 28.0904 37.8695 28.0364C37.8695 28.0132 37.8695 27.99 37.854 27.9669C37.8463 27.9437 37.8231 27.9283 37.8154 27.9051C37.7845 27.8588 37.7537 27.8125 37.7151 27.7662C37.6842 27.7276 37.6456 27.6967 37.607 27.6658C37.5838 27.6504 37.5684 27.6272 37.5452 27.6118C37.3754 27.5114 33.994 25.4811 30.2499 26.2916C31.5546 22.6942 29.9874 19.0658 29.9102 18.8882C29.8948 18.8574 29.8716 18.8419 29.8562 18.8188C29.833 18.7802 29.8021 18.7416 29.7713 18.703C29.7327 18.6566 29.6863 18.618 29.64 18.5794C29.6246 18.564 29.6091 18.5408 29.586 18.5331C29.5705 18.5177 29.5474 18.5177 29.5242 18.51C29.4702 18.4868 29.4161 18.4636 29.3621 18.4482C29.3158 18.4328 29.2695 18.425 29.2154 18.425C29.1691 18.425 29.1151 18.425 29.0687 18.425C29.0147 18.425 28.9607 18.4405 28.9066 18.4636C28.8835 18.4714 28.8603 18.4636 28.8371 18.4791C28.814 18.4868 28.7985 18.51 28.7754 18.5254C28.7213 18.5563 28.6827 18.5872 28.6364 18.6258C28.5978 18.6566 28.567 18.6952 28.5361 18.7338C28.5206 18.757 28.4898 18.7724 28.4743 18.7956C28.374 18.9654 26.3359 22.3468 27.1542 26.0909C23.5567 24.7863 19.9361 26.3534 19.7508 26.4383C19.7276 26.446 19.7122 26.4692 19.689 26.4846C19.6427 26.5078 19.5964 26.5387 19.5578 26.5773C19.5192 26.6159 19.4806 26.6545 19.4497 26.6931C19.4343 26.7162 19.4111 26.724 19.3957 26.7471C19.3802 26.7703 19.3802 26.7934 19.3725 26.8166C19.3494 26.8629 19.3339 26.917 19.3185 26.971C19.303 27.025 19.2953 27.0714 19.2876 27.1254C19.2876 27.1717 19.2876 27.218 19.2876 27.2721C19.2876 27.3261 19.303 27.3879 19.3262 27.4419C19.3262 27.4651 19.3262 27.4882 19.3416 27.5114C19.3494 27.5346 19.3725 27.55 19.388 27.5732C19.4188 27.6195 19.4497 27.6658 19.4883 27.7121C19.5192 27.7507 19.5578 27.7816 19.5964 27.8125H19.6118ZM28.1964 33.8726C27.9957 32.7146 27.9494 31.217 28.4743 29.7502C28.7985 31.271 28.5515 32.7532 28.1964 33.8726ZM34.7197 28.1522C33.5617 28.3451 32.0718 28.3992 30.6127 27.882C32.1258 27.5654 33.6081 27.8048 34.7197 28.1522ZM29.007 21.6365C29.2 22.7945 29.254 24.2922 28.7368 25.7513C28.4125 24.2304 28.6596 22.7559 29.007 21.6365ZM26.5984 27.6195C25.0853 27.936 23.6108 27.6967 22.4914 27.3493C23.6494 27.1563 25.1393 27.1022 26.5984 27.6195Z" fill="#220F25"/>
</g>
<defs>
<clipPath id="clip0_28_194">
<rect width="55" height="55" fill="white" transform="matrix(1 0 0 -1 0.475098 55)"/>
</clipPath>
</defs>
</svg>
