<svg width="55" height="54" viewBox="0 0 55 54" fill="none" xmlns="http://www.w3.org/2000/svg">
<path d="M22.663 48.4527C22.8861 48.6453 23.1785 48.6915 23.4478 48.5836C26.3409 49.015 29.4495 48.9765 32.2965 48.4604C45.3463 46.1651 54.8951 34.8502 54.9951 21.5634C54.9951 21.548 54.9951 21.5326 54.9874 21.5172C54.9874 21.5018 54.9874 21.4864 54.9874 21.471C54.9874 21.4248 54.9643 21.3863 54.949 21.3477C54.9413 21.3092 54.9336 21.263 54.9105 21.2245C54.8874 21.1706 54.8489 21.1244 54.8105 21.0782C54.7874 21.0473 54.7643 21.0088 54.7335 20.9857C54.6873 20.9395 54.6335 20.9164 54.5796 20.8779C54.5488 20.8625 54.5181 20.8317 54.4873 20.8163C54.4103 20.7855 54.3257 20.7701 54.2334 20.7624C54.218 20.7624 54.2026 20.7547 54.1872 20.7547C54.1564 20.7547 54.1333 20.7547 54.1026 20.7547C50.5862 21.1244 47.1622 21.9947 43.9074 23.3504C44.269 20.8933 44.4614 18.3438 44.4614 15.7558C44.4614 14.8238 44.4306 13.8687 44.3768 12.8288C44.3614 12.5592 44.2152 12.3205 43.9843 12.1818C43.8612 12.1048 43.7227 12.074 43.5765 12.074C43.4534 12.074 43.338 12.1048 43.2226 12.1587C42.9764 12.2742 39.3061 14.0997 35.0126 17.3194C34.0046 9.74014 28.4338 5.2573 28.1876 5.05704C28.1491 5.02623 28.1107 5.01083 28.0722 4.99542C28.0414 4.98002 28.0106 4.95691 27.9799 4.9415C27.8875 4.90299 27.7875 4.87988 27.6952 4.87988C27.6028 4.87988 27.5028 4.90299 27.4105 4.9415C27.3797 4.95691 27.3489 4.97231 27.3181 4.99542C27.2797 5.01853 27.2335 5.03393 27.195 5.06474C26.9411 5.26501 21.4011 9.77095 20.3777 17.3194C16.0227 14.0535 12.3601 12.2357 12.2062 12.1587C12.0985 12.1048 11.9754 12.074 11.8523 12.074C11.7138 12.074 11.5753 12.1125 11.4445 12.1818C11.2136 12.3205 11.0674 12.5592 11.0521 12.8288C10.9982 13.8532 10.9674 14.8084 10.9674 15.7558C10.9674 18.3207 11.1675 20.8702 11.5368 23.3735C8.15125 21.9562 4.56563 21.0627 0.864591 20.7084C0.841508 20.7084 0.81073 20.7084 0.787647 20.7084C0.787647 20.7084 0.764563 20.7084 0.749174 20.7084C0.656841 20.7084 0.564507 20.7315 0.487563 20.7624C0.456785 20.7778 0.426007 20.8009 0.395229 20.8163C0.341368 20.8471 0.287507 20.8779 0.24134 20.9241C0.210562 20.9549 0.195173 20.9857 0.17209 21.0165C0.133617 21.0628 0.0951452 21.109 0.0720618 21.1629C0.0566729 21.2014 0.0489784 21.2476 0.0335895 21.2861C0.0182006 21.3323 0.00281165 21.3708 -0.00488281 21.4171C-0.00488281 21.4325 -0.00488281 21.4479 -0.00488281 21.4633C-0.00488281 21.4787 -0.00488281 21.4864 -0.00488281 21.5018C0.0720618 34.8425 9.59011 46.1189 22.6707 48.445L22.663 48.4527ZM42.8763 15.7558C42.8763 18.6288 42.6378 21.4402 42.1762 24.136C38.5521 25.8614 35.2511 28.1567 32.3503 30.9681C31.4501 29.0502 30.242 27.1323 28.7493 25.2529C33.6815 19.5454 40.2679 15.594 42.8456 14.1768C42.861 14.7159 42.8763 15.2397 42.8763 15.7558ZM26.895 7.56804V15.6556C26.895 16.087 27.2335 16.4259 27.6567 16.449C27.2335 16.4721 26.895 16.811 26.895 17.2423V21.34C26.895 21.7868 27.2566 22.1411 27.6952 22.1411C28.1338 22.1411 28.4954 21.7791 28.4954 21.34V17.2423C28.4954 16.811 28.1568 16.4721 27.7336 16.449C28.1568 16.4259 28.4954 16.087 28.4954 15.6556V7.55264C30.2343 9.40123 33.1352 13.2371 33.5276 18.4747C31.5578 20.0537 29.5341 21.91 27.6952 24.0051C26.0409 22.118 24.0942 20.2617 21.8705 18.4747C22.2706 13.2602 25.1637 9.42433 26.895 7.56804ZM12.5986 14.1768C14.0375 14.9701 16.7229 16.5491 19.6699 18.7828L20.547 19.4529C23.1016 21.4787 25.3099 23.5969 27.095 25.7458C28.857 27.8717 30.2113 30.0361 31.15 32.1928C29.6188 33.8257 28.2261 35.5742 27.0335 37.4228C26.0255 38.9633 25.1329 40.5962 24.3712 42.2676C24.1865 42.6682 24.3712 43.1457 24.7713 43.3306C25.1791 43.5154 25.6484 43.3306 25.8331 42.93C26.5564 41.3356 27.4182 39.772 28.38 38.2932C29.6111 36.3829 31.0577 34.5729 32.6735 32.9091C35.7359 29.7511 39.2984 27.2247 43.2534 25.3915C46.4697 23.905 49.8706 22.919 53.3793 22.4569C52.8638 34.5729 44.0228 44.7555 32.0272 46.866C29.2264 47.3744 26.1563 47.3975 23.3555 46.9353L23.2016 46.9122C11.0521 44.8865 2.11109 34.6576 1.61865 22.403C5.31199 22.8497 8.87452 23.8587 12.2216 25.4223C16.1689 27.2555 19.7083 29.7742 22.7399 32.9091C23.4171 33.6024 24.0711 34.3418 24.6943 35.1043C24.979 35.4432 25.4792 35.4972 25.8254 35.2199C26.1717 34.9426 26.2178 34.4342 25.9408 34.0876C25.2868 33.2943 24.602 32.524 23.8941 31.7923C20.824 28.6189 17.2615 26.0616 13.2911 24.1591C12.8218 21.4094 12.5833 18.5903 12.5833 15.7481C12.5833 15.232 12.5909 14.7082 12.6063 14.169L12.5986 14.1768Z" fill="#220F25"/>
</svg>
