<svg width="38" height="39" viewBox="0 0 38 39" fill="none" xmlns="http://www.w3.org/2000/svg">
<g clip-path="url(#clip0_11_1105)">
<path d="M0 9.79004C0 8.43893 0.464444 7.29893 1.39333 6.37004C2.32222 5.44115 3.46222 4.97671 4.81333 4.97671H33.3133C34.58 4.97671 35.6778 5.44115 36.6067 6.37004C37.5356 7.29893 38 8.43893 38 9.79004V28.79C38 30.1412 37.5356 31.26 36.6067 32.1467C35.6778 33.0334 34.5378 33.4767 33.1867 33.4767H4.81333C3.46222 33.4767 2.32222 33.0334 1.39333 32.1467C0.464444 31.26 0 30.1412 0 28.79V9.79004ZM4.81333 7.38338C4.13778 7.38338 3.56778 7.6156 3.10333 8.08004C2.63889 8.54449 2.40667 9.11448 2.40667 9.79004V10.2967L19 20.3034L35.5933 10.2967V9.79004C35.5933 9.11448 35.3611 8.54449 34.8967 8.08004C34.4322 7.6156 33.9044 7.38338 33.3133 7.38338H4.81333ZM35.5933 13.0834L24.4467 19.7967L35.5933 26.6367V13.0834ZM35.5933 29.4234L22.1667 21.19L19 23.09L15.8333 21.19L2.40667 29.4234C2.57556 29.93 2.87111 30.3523 3.29333 30.69C3.71556 31.0278 4.22222 31.1967 4.81333 31.1967H33.3133C33.82 31.1967 34.2844 31.0278 34.7067 30.69C35.1289 30.3523 35.4244 29.93 35.5933 29.4234ZM2.40667 26.6367L13.5533 19.7967L2.40667 13.0834V26.6367Z" fill="#260426"/>
</g>
<defs>
<clipPath id="clip0_11_1105">
<rect width="38" height="38" fill="white" transform="matrix(1 0 0 -1 0 38.29)"/>
</clipPath>
</defs>
</svg>
