<svg width="13" height="13" viewBox="0 0 13 13" fill="none" xmlns="http://www.w3.org/2000/svg">
<path d="M4.46009 2.03004C4.54009 1.95004 4.63342 1.91004 4.74009 1.91004C4.84675 1.91004 4.92675 1.95004 4.98009 2.03004L9.50009 6.51004C9.58009 6.59004 9.62009 6.68338 9.62009 6.79004C9.62009 6.89671 9.58009 6.99004 9.50009 7.07004L4.98009 11.55C4.92675 11.63 4.84675 11.67 4.74009 11.67C4.63342 11.67 4.54009 11.63 4.46009 11.55C4.38009 11.47 4.34009 11.3834 4.34009 11.29C4.34009 11.1967 4.38009 11.11 4.46009 11.03L8.70009 6.79004L4.46009 2.55004C4.38009 2.47004 4.34009 2.38338 4.34009 2.29004C4.34009 2.19671 4.38009 2.11004 4.46009 2.03004Z" fill="#260426"/>
</svg>
