<svg width="17" height="17" viewBox="0 0 17 17" fill="none" xmlns="http://www.w3.org/2000/svg">
<g clip-path="url(#clip0_11_1273)">
<path d="M16.8 8.84325C16.8 7.38547 16.4445 6.04325 15.7334 4.81658C15.0223 3.58992 14.0534 2.61214 12.8267 1.88325C11.6 1.15436 10.2578 0.789917 8.80005 0.789917C7.34227 0.789917 6.00005 1.15436 4.77338 1.88325C3.54672 2.61214 2.57783 3.58992 1.86672 4.81658C1.1556 6.04325 0.800049 7.38547 0.800049 8.84325C0.800049 10.1588 1.09338 11.3855 1.68005 12.5233C2.26672 13.661 3.0756 14.6033 4.10672 15.3499C5.13783 16.0966 6.29338 16.5766 7.57338 16.7899V11.1899H5.49338V8.84325H7.57338V7.08325C7.57338 6.08769 7.84005 5.31436 8.37338 4.76325C8.90672 4.21214 9.6356 3.93658 10.56 3.93658C10.9156 3.93658 11.3245 3.95436 11.7867 3.98992L12.3734 4.09658V6.06992H11.36C10.8978 6.06992 10.56 6.18547 10.3467 6.41658C10.1334 6.64769 10.0267 6.95881 10.0267 7.34992V8.84325H12.2667L11.8934 11.1899H10.0267V16.7899C11.3067 16.5766 12.4623 16.0966 13.4934 15.3499C14.5245 14.6033 15.3334 13.661 15.92 12.5233C16.5067 11.3855 16.8 10.1588 16.8 8.84325Z" fill="#260426"/>
</g>
<defs>
<clipPath id="clip0_11_1273">
<rect width="16" height="16" fill="white" transform="matrix(1 0 0 -1 0.800049 16.7899)"/>
</clipPath>
</defs>
</svg>
