<svg width="56" height="56" viewBox="0 0 56 56" fill="none" xmlns="http://www.w3.org/2000/svg">
<g clip-path="url(#clip0_11_242)">
<path d="M1.77341 7.14634C1.58875 7.16861 1.42626 7.25024 1.30808 7.3764C1.18989 7.49514 1.11603 7.64356 1.08648 7.81425C1.02739 8.22241 -0.324332 17.8551 8.25132 25.6621C8.57633 25.959 9.07861 25.9219 9.37406 25.6102C9.66952 25.2836 9.63997 24.779 9.32235 24.4821C2.60808 18.3671 2.48252 10.8718 2.60808 8.6751C4.29958 8.60831 9.05644 8.77157 14.0275 12.0295C14.0718 12.0666 14.1162 12.0888 14.1605 12.1185C16.0292 13.3653 17.9276 15.0573 19.7003 17.343C18.8509 17.0536 17.9497 16.8087 16.9969 16.5935C16.7605 16.5415 16.5167 16.5935 16.3321 16.7493C16.3099 16.7716 16.2878 16.7864 16.2656 16.8087C16.1179 16.9571 16.0366 17.1501 16.0366 17.3653C16.0145 20.2224 16.3986 22.753 17.1889 24.9052C11.6712 26.1445 6.40471 28.2521 1.52228 31.2131C1.46319 31.2502 1.41148 31.2873 1.36716 31.3393C1.36716 31.3393 1.36716 31.3467 1.35977 31.3467C1.35239 31.3467 1.35978 31.3467 1.35239 31.3541C1.35239 31.3541 1.35239 31.369 1.33762 31.3764C1.27852 31.4432 1.23421 31.5174 1.20467 31.599C1.19728 31.6213 1.18988 31.651 1.1825 31.6732C1.16034 31.74 1.15296 31.8068 1.15296 31.8736C1.15296 31.9033 1.15296 31.933 1.15296 31.9627C1.15296 32.0295 1.17511 32.0888 1.19727 32.1556C1.21205 32.1853 1.21943 32.215 1.23421 32.2447C1.24159 32.2595 1.24159 32.2818 1.25637 32.2966C1.27852 32.3337 1.30807 32.356 1.33762 32.3857C1.35978 32.4154 1.37455 32.445 1.39671 32.4673C4.05583 34.9385 7.00302 37.0016 10.157 38.6417C10.0462 38.6417 9.94281 38.6714 9.8394 38.7233C9.73599 38.7753 7.29848 40.0369 5.1047 41.7808C5.08254 41.8031 5.05299 41.8254 5.03084 41.8476C4.90527 41.9812 4.82402 42.1519 4.80186 42.3374C4.7797 42.5527 4.85357 42.7753 5.00129 42.9385C5.20811 43.176 10.1718 48.5786 23.4526 47.1018C24.6344 49.202 26.3038 51.3393 28.4458 53.4617C28.7561 53.766 29.2584 53.766 29.5612 53.4617L29.6277 53.395C31.7328 51.2577 33.3652 49.1055 34.5249 46.9979C47.8205 48.3411 52.7177 42.9385 52.9171 42.6936C53.0648 42.5304 53.1313 42.3078 53.1092 42.0925C53.087 41.8773 52.9762 41.677 52.8063 41.5359C50.5904 39.8217 48.1455 38.5823 48.0421 38.5304C47.6506 38.33 47.1778 38.4933 46.9784 38.8866C46.779 39.2799 46.9415 39.7549 47.333 39.9552C47.3551 39.9627 49.1944 40.8977 51.0631 42.2261C49.4381 43.4877 44.6738 46.2632 35.3005 45.4617C35.7732 44.4005 36.113 43.3319 36.3346 42.2855C43.6102 40.8161 50.3097 37.3356 55.7387 32.1927C55.7683 32.163 55.7831 32.1334 55.8052 32.1037C55.8274 32.074 55.8569 32.0517 55.8791 32.022C55.8865 32.0072 55.8865 31.9924 55.8938 31.9775C55.916 31.9256 55.9308 31.8736 55.9455 31.8217C55.9603 31.7771 55.9751 31.7326 55.9751 31.6807C55.9751 31.6287 55.9751 31.5768 55.9677 31.5248C55.9677 31.4729 55.9603 31.4283 55.9455 31.3764C55.9308 31.3319 55.9086 31.2873 55.8791 31.2428C55.8569 31.1909 55.8274 31.1463 55.7904 31.1018C55.7831 31.087 55.7757 31.0721 55.7683 31.0647C55.7387 31.035 55.7092 31.0202 55.6796 30.9979C55.6501 30.9757 55.6279 30.946 55.5984 30.9237C50.7455 28.0443 45.5011 25.9961 39.9908 24.8013C40.7886 22.4784 41.084 19.7475 40.8846 16.6528C40.8698 16.4154 40.7443 16.1927 40.5522 16.0517C40.3528 15.9107 40.109 15.8736 39.88 15.9404C39.2744 16.1111 38.6982 16.304 38.1295 16.5044C39.7397 14.3597 41.4164 12.7642 43.0636 11.5842C43.1079 11.5619 43.1449 11.5248 43.1892 11.4951C47.9239 8.1482 52.341 8.20757 53.8921 8.35599C54.0472 10.4784 54.0398 18.0629 47.3477 24.2744C47.0301 24.5786 47.008 25.0758 47.3034 25.4024C47.5989 25.7289 48.1012 25.7437 48.4262 25.4469C56.9058 17.5359 55.4654 7.93298 55.399 7.52482C55.3473 7.19829 55.0961 6.93855 54.7711 6.87176C54.6972 6.85692 49.9625 6.01091 44.4375 8.92742C44.8954 7.33187 45.25 4.89773 44.9176 1.40979C44.8807 1.00163 44.5409 0.697363 44.142 0.689941C43.9057 0.689941 38.6982 0.689942 33.1953 6.27807C33.0254 6.45618 32.8482 6.65655 32.6709 6.8495C31.718 5.5879 30.6027 4.30404 29.3101 3.03502C28.9998 2.73076 28.4975 2.73076 28.1947 3.03502L28.0987 3.1315C26.8578 4.3931 25.772 5.66953 24.8486 6.93113C19.102 0.860627 13.6951 0.845786 13.4588 0.853207C13.2446 0.853207 13.0451 0.949682 12.9048 1.09068C12.7792 1.21684 12.698 1.38753 12.6758 1.58048C12.3582 5.39495 12.7127 8.0443 13.119 9.69922C7.1729 6.56007 1.87682 7.1315 1.79557 7.14634H1.77341ZM25.6759 20.6603C26.1856 18.6417 27.2271 16.5564 28.793 14.4413C30.2407 16.3486 31.2601 18.2484 31.8288 20.1037C31.8067 20.1259 31.7919 20.1482 31.7697 20.163C31.6368 20.2892 31.5038 20.4154 31.3783 20.5415C31.3413 20.5786 31.297 20.6083 31.2601 20.6454C31.2305 20.6751 31.201 20.7122 31.1714 20.7419C31.0902 20.8235 31.0089 20.9126 30.9351 21.0016C30.876 21.0684 30.8169 21.1278 30.7578 21.1946C30.7061 21.254 30.6544 21.3133 30.6027 21.3727C30.4328 21.5731 30.2703 21.7734 30.1152 21.9812C30.0856 22.0257 30.0561 22.0629 30.0265 22.1074C29.9748 22.1816 29.9305 22.2484 29.8788 22.3226C29.8049 22.4339 29.7237 22.5452 29.6498 22.6565C29.5834 22.7604 29.5243 22.8569 29.4652 22.9608C29.4061 23.0647 29.3396 23.1612 29.2805 23.2651C29.2584 23.3096 29.2288 23.3541 29.2066 23.3987C29.1549 23.4877 29.1106 23.5768 29.0663 23.6658C28.985 23.8142 28.9112 23.9701 28.8447 24.1259C28.8004 24.215 28.7561 24.3115 28.7191 24.4005C28.7044 24.445 28.6822 24.4821 28.6601 24.5267C28.6305 24.4673 28.5936 24.4154 28.564 24.356C28.4458 24.1185 28.3203 23.8959 28.1873 23.6658C28.1356 23.5842 28.0913 23.4951 28.0396 23.4135C28.0174 23.3838 28.0027 23.3467 27.9805 23.317C27.7663 22.9831 27.5373 22.664 27.2862 22.3449C27.2271 22.2632 27.1606 22.189 27.0941 22.1148C26.9464 21.9367 26.7987 21.766 26.6435 21.5953C26.5771 21.5285 26.5106 21.4543 26.4441 21.3875C26.3703 21.3133 26.2964 21.2317 26.2151 21.1575C26.0822 21.0313 25.9492 20.9052 25.8163 20.779C25.7646 20.7345 25.7276 20.6899 25.6759 20.6454V20.6603ZM39.3482 26.3003C44.4449 27.3764 49.3051 29.2168 53.833 31.7697C48.9137 36.1779 42.9823 39.2131 36.5709 40.6083C36.8294 37.5434 35.9948 34.5527 34.1408 31.8439C36.4306 30.5898 38.2033 28.6974 39.3482 26.2929V26.3003ZM17.6173 18.3968C19.0355 18.7679 20.3282 19.2354 21.4583 19.7846C21.473 19.7846 21.5395 19.8217 21.5543 19.8291C22.5884 20.3411 23.5117 20.9274 24.2947 21.5731C24.5236 21.7586 24.7379 21.9515 24.9521 22.1519C25.0185 22.2187 25.0776 22.2855 25.1441 22.3523C25.2844 22.4859 25.4174 22.6269 25.5504 22.7679C25.6242 22.8495 25.6907 22.9311 25.7572 23.0128C25.868 23.1463 25.9862 23.2725 26.0896 23.4135C26.1634 23.5026 26.2225 23.599 26.2964 23.6955C26.3924 23.8291 26.4884 23.9552 26.5771 24.0962C26.6436 24.2001 26.7026 24.304 26.7617 24.4005C26.843 24.5341 26.9242 24.6677 27.0055 24.8087C27.0646 24.92 27.1163 25.0313 27.168 25.1352C27.2345 25.2762 27.3083 25.4098 27.3748 25.5508C27.4265 25.6621 27.4708 25.7808 27.5152 25.8996C27.5742 26.0406 27.6333 26.189 27.685 26.33C27.7294 26.4488 27.7589 26.5675 27.8032 26.6936C27.8402 26.8198 27.8771 26.9385 27.914 27.0647C27.8845 27.2057 27.8623 27.3467 27.8402 27.4803C27.8328 27.4877 27.818 27.4951 27.8106 27.5026C27.7367 27.5545 27.6629 27.6139 27.5816 27.6807C27.5521 27.7029 27.5299 27.7178 27.5004 27.74C27.3896 27.8217 27.2788 27.9181 27.1606 28.0146C26.7322 28.3634 26.2816 28.7642 25.8384 29.2094L25.7055 29.343C25.4248 29.625 25.1663 29.9144 24.9151 30.2039C24.8413 30.2929 24.7674 30.3745 24.6935 30.4636C24.6049 30.5675 24.5089 30.6714 24.4276 30.7753C21.9827 29.6621 20.1656 27.8068 19.0208 25.2465C19.0134 25.2094 18.9986 25.1797 18.9838 25.1426C18.1565 23.2577 17.6986 20.9868 17.6247 18.382L17.6173 18.3968ZM21.3105 40.8384C14.6184 39.5916 8.42121 36.5712 3.26548 32.0443C7.82291 29.4098 12.7053 27.5174 17.8168 26.4042C19.0798 28.9497 21.0225 30.9014 23.4969 32.1037C21.7316 34.8198 20.9855 37.8031 21.3105 40.8384ZM6.83313 42.471C8.68712 41.1278 10.5263 40.1705 10.5485 40.163C10.94 39.9627 11.0951 39.4803 10.8883 39.0944C10.8735 39.0647 10.844 39.0424 10.8218 39.0128C14.2048 40.6825 17.8241 41.8625 21.5912 42.5081C21.8202 43.5248 22.1674 44.5564 22.6475 45.5953C13.2667 46.4933 8.47292 43.7252 6.83313 42.4784V42.471ZM24.5606 45.8922C24.5606 45.8922 24.5606 45.8773 24.5532 45.8699C23.7924 44.4376 23.2827 43.0202 23.0242 41.6621C22.3816 38.3374 23.1572 35.1686 25.3214 32.2372C25.7572 31.6436 26.2595 31.0499 26.8282 30.4784L26.9538 30.3523C27.36 29.9441 27.7663 29.5805 28.1652 29.2614C28.2907 29.1575 28.4015 29.0684 28.5123 28.9868C28.5419 28.9645 28.5714 28.9423 28.601 28.92C28.6896 28.8532 28.7709 28.7864 28.8447 28.7345C28.8521 28.7345 28.8669 28.7196 28.8743 28.7122C28.9481 28.7642 29.022 28.8161 29.1106 28.8829C29.1328 28.8977 29.1476 28.9126 29.1697 28.9274C29.2953 29.0239 29.443 29.1352 29.5981 29.2614C29.9896 29.5731 30.418 29.9515 30.8243 30.3449C31.3709 30.8718 31.8879 31.4506 32.3607 32.0591C32.3607 32.0666 32.3754 32.074 32.3828 32.0814C34.6209 34.9905 35.4703 38.1593 34.8942 41.4914C34.6578 42.9014 34.1556 44.3486 33.4021 45.7957C32.3902 47.7549 30.9203 49.7586 29.0072 51.7771C27.0867 49.7957 25.6021 47.8217 24.5827 45.8996L24.5606 45.8922ZM38.1738 25.0833C37.1544 27.5174 35.4556 29.3801 33.1879 30.5675C33.0993 30.4636 33.0033 30.3597 32.9073 30.2558C32.8334 30.1667 32.7595 30.0851 32.6783 29.9961C32.4271 29.7215 32.1686 29.4469 31.9027 29.1872C31.4521 28.7493 31.0016 28.356 30.5658 27.9998C30.4033 27.8736 30.2629 27.7623 30.1299 27.6584C30.1078 27.6436 30.0856 27.6287 30.0709 27.6139C29.9453 27.5248 29.8345 27.4432 29.7385 27.369C29.7163 27.3541 29.6941 27.3393 29.6794 27.3244C29.6572 27.3096 29.6277 27.2873 29.6055 27.2725C29.5834 27.1834 29.5686 27.1018 29.5464 27.0128C29.576 26.8643 29.6129 26.7233 29.6498 26.5823C29.6794 26.4636 29.7089 26.3374 29.7459 26.2187C29.805 26.0109 29.8788 25.8031 29.9527 25.6027C29.9822 25.5285 30.0044 25.4543 30.0265 25.3875C30.1299 25.1204 30.2481 24.8532 30.3737 24.5935C30.9794 23.3541 31.8436 22.241 32.9294 21.2614C33.0328 21.1649 33.1288 21.0684 33.2396 20.9794C34.0743 20.2669 35.0862 19.6065 36.2459 19.0128C36.2607 19.0128 36.2681 18.9979 36.2829 18.9979C37.2135 18.5378 38.2329 18.1296 39.3261 17.7734C39.4073 20.5935 39.0232 23.0424 38.1738 25.0758V25.0833ZM43.3812 2.35228C43.7579 7.97009 42.1846 10.2335 42.0886 10.3671C41.0988 11.0721 40.1016 11.9033 39.1119 12.9052C38.2624 13.766 37.4277 14.7604 36.6152 15.8662C36.3198 13.343 35.2931 10.7604 33.5794 8.17046C37.701 3.60645 41.7784 2.57491 43.3812 2.34486V2.35228ZM31.9249 8.55636C34.1408 11.7326 35.2118 14.8421 35.1232 17.818C35.0198 17.8699 34.9311 17.9293 34.8351 17.9812C34.7169 18.048 34.5988 18.1148 34.488 18.1816C34.3181 18.2855 34.1482 18.3894 33.9857 18.4933C33.8823 18.5601 33.7789 18.6269 33.6754 18.6937C33.4982 18.8124 33.3357 18.9311 33.1658 19.0499C33.1658 19.0499 33.1584 19.0499 33.151 19.0573C32.405 16.9423 31.1493 14.7901 29.4061 12.6528C29.251 12.4673 29.0294 12.3634 28.7856 12.3634C28.5714 12.3634 28.372 12.4525 28.2242 12.6009C28.2021 12.6232 28.1873 12.638 28.1725 12.6603C26.2964 15.0053 25.0111 17.343 24.3242 19.6287C24.1986 19.5397 24.0657 19.4506 23.9327 19.3616C23.8293 19.2948 23.7259 19.2354 23.6225 19.1686C23.4748 19.0796 23.3344 18.9905 23.1867 18.9089C23.0833 18.8495 22.9725 18.7901 22.8617 18.7308C22.7509 18.6714 22.6475 18.612 22.5367 18.5526C22.2191 15.3912 23.231 12.0591 25.5577 8.64541C26.4293 7.36156 27.5004 6.04801 28.7413 4.74931C29.9896 6.03317 31.0606 7.30961 31.9322 8.56378L31.9249 8.55636ZM14.1752 2.51554C15.7633 2.7456 19.7594 3.77714 23.9032 8.27436C22.1378 11.0053 21.1407 13.7215 20.9338 16.3634C19.102 14.0109 17.1224 12.2521 15.165 10.9311C14.9139 10.382 13.8576 7.74003 14.1752 2.50812V2.51554Z" fill="#260426"/>
</g>
<defs>
<clipPath id="clip0_11_242">
<rect width="55" height="55" fill="white" transform="matrix(1 0 0 -1 0.475098 55.5)"/>
</clipPath>
</defs>
</svg>
