<svg width="18" height="19" viewBox="0 0 18 19" fill="none" xmlns="http://www.w3.org/2000/svg">
<path d="M1.13989 9.69004C1.13989 9.53004 1.18989 9.40004 1.28989 9.30004C1.38989 9.20004 1.51989 9.15004 1.67989 9.15004H14.9399L11.3999 5.61004C11.2799 5.49004 11.2199 5.35004 11.2199 5.19004C11.2199 5.03004 11.2799 4.90004 11.3999 4.80004C11.5199 4.70004 11.6599 4.65004 11.8199 4.65004C11.9799 4.65004 12.1199 4.69004 12.2399 4.77004L16.7399 9.27004C16.8199 9.39004 16.8599 9.53004 16.8599 9.69004C16.8599 9.85004 16.8199 9.99004 16.7399 10.11L12.2399 14.61C12.1199 14.69 11.9799 14.73 11.8199 14.73C11.6599 14.73 11.5199 14.68 11.3999 14.58C11.2799 14.48 11.2199 14.35 11.2199 14.19C11.2199 14.03 11.2799 13.89 11.3999 13.77L14.9399 10.23H1.67989C1.51989 10.23 1.38989 10.18 1.28989 10.08C1.18989 9.98004 1.13989 9.85004 1.13989 9.69004Z" fill="#260426"/>
</svg>
