<svg width="19" height="18" viewBox="0 0 19 18" fill="none" xmlns="http://www.w3.org/2000/svg">
<g clip-path="url(#clip0_29_677)">
<path d="M4.24198 17.3529C4.00305 17.4325 3.79398 17.4027 3.61478 17.2634C3.43558 17.1241 3.36589 16.9151 3.40572 16.6365L4.30172 11.3829L0.359317 7.62184C0.200028 7.42284 0.15025 7.20394 0.209983 6.96514C0.269717 6.72634 0.438961 6.58704 0.717716 6.54724L6.15345 5.77114L8.60251 0.935444C8.72198 0.696644 8.90118 0.577244 9.14011 0.577244C9.37905 0.577244 9.55825 0.696644 9.67771 0.935444L12.1268 5.77114L17.6222 6.54724C17.8612 6.58704 18.0105 6.72634 18.0702 6.96514C18.13 7.20394 18.0802 7.42284 17.9209 7.62184L13.9785 11.3829L14.8745 16.6365C14.9143 16.9151 14.8446 17.1241 14.6654 17.2634C14.4862 17.4027 14.2772 17.4325 14.0382 17.3529L9.14011 14.7858L4.24198 17.3529Z" fill="#FFC107"/>
</g>
<defs>
<clipPath id="clip0_29_677">
<rect width="17.93" height="17.91" fill="white" transform="matrix(1 0 0 -1 0.175049 17.95)"/>
</clipPath>
</defs>
</svg>
