<svg width="19" height="18" viewBox="0 0 19 18" fill="none" xmlns="http://www.w3.org/2000/svg">
<g clip-path="url(#clip0_29_685)">
<path d="M4.47685 17.3529C4.23791 17.4325 4.02885 17.4027 3.84965 17.2634C3.67045 17.1241 3.60076 16.9151 3.64058 16.6365L4.53658 11.3829L0.59418 7.62184C0.434891 7.42284 0.385113 7.20394 0.444847 6.96514C0.50458 6.72634 0.673824 6.58704 0.95258 6.54724L6.38831 5.77114L8.83738 0.935444C8.95685 0.696644 9.13605 0.577244 9.37498 0.577244C9.61391 0.577244 9.79311 0.696644 9.91258 0.935444L12.3616 5.77114L17.8571 6.54724C18.096 6.58704 18.2454 6.72634 18.3051 6.96514C18.3648 7.20394 18.3151 7.42284 18.1558 7.62184L14.2134 11.3829L15.1094 16.6365C15.1492 16.9151 15.0795 17.1241 14.9003 17.2634C14.7211 17.4027 14.512 17.4325 14.2731 17.3529L9.37498 14.7858L4.47685 17.3529Z" fill="#FFC107"/>
</g>
<defs>
<clipPath id="clip0_29_685">
<rect width="17.92" height="17.91" fill="white" transform="matrix(1 0 0 -1 0.415039 17.95)"/>
</clipPath>
</defs>
</svg>
