<svg width="56" height="55" viewBox="0 0 56 55" fill="none" xmlns="http://www.w3.org/2000/svg">
<path d="M28.1593 0.213623C13.0839 0.213623 0.823486 12.4837 0.823486 27.5629C0.823486 42.642 13.0839 54.9202 28.1593 54.9202C43.2347 54.9202 55.4951 42.6501 55.4951 27.5629C55.4951 12.4756 43.2266 0.213623 28.1593 0.213623ZM2.5157 27.5629C2.5157 16.6362 9.37407 7.28909 19.0067 3.59259C18.8928 3.69029 18.7952 3.79614 18.6894 3.89384C18.4779 4.08925 18.2582 4.28466 18.0548 4.49636C17.9165 4.63477 17.7863 4.78947 17.6562 4.93603C17.4691 5.14772 17.2901 5.35127 17.1111 5.57111C16.9809 5.73395 16.867 5.89679 16.745 6.05963C16.5823 6.27947 16.4277 6.50745 16.2812 6.73543C16.1673 6.90641 16.0616 7.08554 15.9558 7.26466C15.8175 7.50078 15.6873 7.74504 15.5653 7.98931C15.4758 8.17657 15.3782 8.3557 15.2968 8.55111C15.1829 8.80351 15.0772 9.0722 14.9795 9.33275C14.9063 9.52002 14.8331 9.71543 14.768 9.90269C14.6785 10.1795 14.5972 10.4645 14.5239 10.7576C14.4751 10.9449 14.4182 11.1321 14.3775 11.3194C14.3043 11.637 14.2555 11.9708 14.2148 12.2965C14.1904 12.4593 14.1578 12.6221 14.1416 12.785C14.0846 13.2817 14.0602 13.7865 14.0602 14.2994C14.0602 22.0751 20.3816 28.4015 28.1512 28.4015C34.9851 28.4015 40.5418 33.9625 40.5418 40.8019C40.5418 47.6412 34.9851 53.2104 28.1512 53.2104C14.0114 53.2104 2.50757 41.6975 2.50757 27.5466L2.5157 27.5629ZM37.2957 51.5413C37.4014 51.4517 37.4991 51.3459 37.6048 51.2482C37.8245 51.0446 38.0442 50.8492 38.2475 50.6375C38.3858 50.4991 38.516 50.3444 38.6462 50.1978C38.8333 49.9861 39.0204 49.7826 39.1913 49.5628C39.3214 49.3999 39.4353 49.2371 39.5574 49.0742C39.7201 48.8544 39.8747 48.6264 40.0211 48.3984C40.135 48.2193 40.2408 48.0483 40.3465 47.8692C40.4849 47.6331 40.615 47.3888 40.7371 47.1446C40.8347 46.9573 40.9242 46.77 41.0055 46.5828C41.1194 46.3303 41.2252 46.0698 41.3228 45.8093C41.396 45.6138 41.4693 45.4266 41.5344 45.2312C41.6238 44.9543 41.7052 44.6694 41.7784 44.3844C41.8272 44.1971 41.8842 44.0099 41.9249 43.8144C41.9981 43.4969 42.0469 43.1631 42.0876 42.8374C42.112 42.6746 42.1445 42.5117 42.1608 42.3489C42.2177 41.8522 42.2422 41.3474 42.2422 40.8344C42.2422 33.0588 35.9207 26.7324 28.1593 26.7324C21.3254 26.7324 15.7606 21.1632 15.7606 14.3238C15.7606 7.4845 21.3254 1.92346 28.1593 1.92346C42.2991 1.92346 53.8029 13.4364 53.8029 27.5873C53.8029 38.514 46.9446 47.8692 37.3038 51.5657L37.2957 51.5413Z" fill="#260426"/>
<path d="M28.1594 5.86401C23.4977 5.86401 19.7146 9.65008 19.7146 14.3155C19.7146 18.9809 23.5058 22.767 28.1594 22.767C36.7344 22.767 44.1785 28.8735 45.8545 37.2843C45.9277 37.6344 46.2125 37.9112 46.5704 37.9601C46.9284 38.0089 47.2782 37.8298 47.4409 37.5123C49.0193 34.459 49.8491 31.023 49.8491 27.5708C49.8491 15.6019 40.1188 5.86401 28.1594 5.86401ZM46.8796 34.573C44.2274 26.6182 36.71 21.0653 28.1513 21.0653C24.4251 21.0653 21.3987 18.0364 21.3987 14.3073C21.3987 10.5783 24.4251 7.55757 28.1513 7.55757C39.1751 7.55757 48.1487 16.5301 48.1487 27.5708C48.1487 29.9646 47.7176 32.3502 46.8796 34.5811V34.573Z" fill="#260426"/>
<path d="M36.5961 40.8182C36.5961 36.1609 32.813 32.3667 28.1594 32.3667C19.5844 32.3667 12.1403 26.2601 10.4643 17.8575C10.3911 17.5074 10.1064 17.2306 9.7484 17.1817C9.70772 17.1817 9.66704 17.1736 9.62636 17.1736C9.30907 17.1736 9.01619 17.3446 8.87788 17.6295C7.29956 20.6828 6.46973 24.1106 6.46973 27.5629C6.46973 39.5317 16.2 49.2697 28.1594 49.2697C32.813 49.2697 36.5961 45.4754 36.5961 40.8182ZM8.16194 27.5629C8.16194 25.1284 8.585 22.7835 9.42297 20.5525C12.0752 28.5074 19.6007 34.0603 28.1513 34.0603C31.8693 34.0603 34.8957 37.0891 34.8957 40.81C34.8957 44.531 31.8693 47.568 28.1513 47.568C17.1274 47.568 8.15381 38.5954 8.15381 27.5629H8.16194Z" fill="#260426"/>
</svg>
