<svg width="38" height="39" viewBox="0 0 38 39" fill="none" xmlns="http://www.w3.org/2000/svg">
<g clip-path="url(#clip0_11_1081)">
<path d="M28.88 22.07C27.7822 24.2656 26.22 26.6723 24.1933 29.29C22.5889 31.4012 20.8578 33.4278 19 35.37C17.1422 33.4278 15.4111 31.4012 13.8066 29.29C11.78 26.6723 10.2178 24.2656 9.11998 22.07C7.76887 19.3678 7.09331 16.9823 7.09331 14.9134C7.09331 12.8445 7.62109 10.9023 8.67665 9.08671C9.7322 7.27115 11.1889 5.83559 13.0466 4.78004C14.9044 3.72448 16.8889 3.1967 19 3.1967C21.1111 3.1967 23.0955 3.72448 24.9533 4.78004C26.8111 5.83559 28.2678 7.27115 29.3233 9.08671C30.3789 10.9023 30.9066 12.8445 30.9066 14.9134C30.9066 16.9823 30.2311 19.3678 28.88 22.07ZM19 38.79C19.76 38.03 20.52 37.27 21.28 36.51C23.0533 34.6523 24.6578 32.7523 26.0933 30.81C28.2044 28.0234 29.8511 25.4478 31.0333 23.0834C32.5533 20.0434 33.3133 17.3412 33.3133 14.9767C33.3133 12.4434 32.6589 10.0789 31.35 7.88337C30.0411 5.68782 28.31 3.95671 26.1566 2.69004C24.0033 1.42337 21.6178 0.790039 19 0.790039C16.3822 0.790039 13.9966 1.42337 11.8433 2.69004C9.68998 3.95671 7.95887 5.68782 6.64998 7.88337C5.34109 10.0789 4.68665 12.4434 4.68665 14.9767C4.68665 17.3412 5.44665 20.0434 6.96665 23.0834C8.14887 25.4478 9.79553 28.0234 11.9066 30.81C13.3422 32.7523 14.9466 34.6523 16.72 36.51L19 38.79ZM19 19.79C17.6489 19.79 16.53 19.3256 15.6433 18.3967C14.7566 17.4678 14.3133 16.3489 14.3133 15.04C14.3133 13.7311 14.7566 12.6123 15.6433 11.6834C16.53 10.7545 17.6489 10.29 19 10.29C20.3511 10.29 21.4911 10.7545 22.42 11.6834C23.3489 12.6123 23.8133 13.7311 23.8133 15.04C23.8133 16.3489 23.3489 17.4678 22.42 18.3967C21.4911 19.3256 20.3511 19.79 19 19.79ZM19 22.1967C20.9422 22.1967 22.61 21.5 24.0033 20.1067C25.3966 18.7134 26.0933 17.0245 26.0933 15.04C26.0933 13.0556 25.3966 11.3667 24.0033 9.97337C22.61 8.58004 20.9422 7.88337 19 7.88337C17.0578 7.88337 15.39 8.58004 13.9966 9.97337C12.6033 11.3667 11.9066 13.0556 11.9066 15.04C11.9066 17.0245 12.6033 18.7134 13.9966 20.1067C15.39 21.5 17.0578 22.1967 19 22.1967Z" fill="#260426"/>
</g>
<defs>
<clipPath id="clip0_11_1081">
<rect width="38" height="38" fill="white" transform="matrix(1 0 0 -1 0 38.79)"/>
</clipPath>
</defs>
</svg>
