<svg width="38" height="39" viewBox="0 0 38 39" fill="none" xmlns="http://www.w3.org/2000/svg">
<g clip-path="url(#clip0_11_1093)">
<path d="M8.74012 3.20671C8.40234 2.78448 8.00123 2.57338 7.53678 2.57338C7.07234 2.57338 6.62901 2.74226 6.20678 3.08004L3.80012 5.48671C3.20901 6.07782 2.82901 6.75337 2.66012 7.51337C2.49123 8.27337 2.53345 8.99115 2.78678 9.66671C4.89789 15.6623 8.19123 20.8978 12.6668 25.3734C17.1423 29.8489 22.3779 33.1423 28.3735 35.2534C29.049 35.5067 29.7668 35.5489 30.5268 35.38C31.2868 35.2112 31.9623 34.8312 32.5534 34.24L34.9601 31.8334C35.2979 31.4112 35.4668 30.9678 35.4668 30.5034C35.4668 30.0389 35.2557 29.68 34.8335 29.4267L29.3868 25.12C28.9646 24.7823 28.5001 24.6978 27.9935 24.8667L22.8001 26.1334C22.1246 26.3023 21.4279 26.2812 20.7101 26.07C19.9923 25.8589 19.3801 25.5 18.8735 24.9934L13.0468 19.1667C12.5401 18.66 12.1812 18.0478 11.9701 17.33C11.759 16.6123 11.7379 15.9156 11.9068 15.24L13.1735 10.0467C13.3423 9.54004 13.2579 9.0756 12.9201 8.65337L8.74012 3.20671ZM4.43345 1.30671C5.36234 0.377819 6.43901 -0.0444031 7.66345 0.0400429C8.8879 0.124485 9.88012 0.673374 10.6401 1.68671L14.9468 7.13337C15.369 7.64004 15.6435 8.21004 15.7701 8.84337C15.8968 9.47671 15.8757 10.0889 15.7068 10.68L14.4401 15.8734C14.2712 16.4645 14.3979 16.9712 14.8201 17.3934L20.6468 23.22C21.069 23.6423 21.5757 23.7689 22.1668 23.6L27.3601 22.3334C27.9512 22.1645 28.5634 22.1434 29.1968 22.27C29.8301 22.3967 30.4001 22.6712 30.9068 23.0934L36.3534 27.4C37.3668 28.16 37.9157 29.1523 38.0001 30.3767C38.0846 31.6012 37.6623 32.6778 36.7334 33.6067L34.3268 36.0134C33.3979 36.9423 32.3212 37.5545 31.0968 37.85C29.8723 38.1456 28.669 38.0823 27.4868 37.66C21.1535 35.4645 15.6012 31.9812 10.8301 27.21C6.05901 22.4389 2.57567 16.8867 0.380117 10.5534C-0.0421048 9.37115 -0.105438 8.16782 0.190117 6.94337C0.485673 5.71893 1.0979 4.64227 2.02678 3.71338L4.43345 1.30671Z" fill="#260426"/>
</g>
<defs>
<clipPath id="clip0_11_1093">
<rect width="38" height="38" fill="white" transform="matrix(1 0 0 -1 0 38.04)"/>
</clipPath>
</defs>
</svg>
