<svg width="19" height="18" viewBox="0 0 19 18" fill="none" xmlns="http://www.w3.org/2000/svg">
<g clip-path="url(#clip0_29_689)">
<path d="M5.00452 11.0213L5.19685 11.2049L5.15217 11.467L4.25796 16.713C4.24731 16.7923 4.25619 16.8311 4.26051 16.8441C4.26263 16.8504 4.26452 16.8535 4.2658 16.8552C4.26715 16.8571 4.27078 16.8618 4.2797 16.8687C4.30711 16.89 4.33384 16.9076 4.40916 16.8882L9.26278 14.343L9.49498 14.2213L9.72719 14.343L14.5808 16.8882C14.6561 16.9076 14.6829 16.89 14.7103 16.8687C14.7192 16.8618 14.7228 16.8571 14.7242 16.8552C14.7254 16.8535 14.7273 16.8504 14.7295 16.8441C14.7338 16.8311 14.7427 16.7923 14.732 16.713L13.8378 11.467L13.7931 11.2049L13.9854 11.0213L17.8972 7.28731C17.9476 7.21613 17.9535 7.16018 17.9351 7.08641C17.9299 7.06572 17.9247 7.0539 17.9219 7.04837C17.9173 7.0466 17.9086 7.0438 17.8947 7.04124L12.41 6.26623L12.1517 6.22972L12.0339 5.99695L9.58617 1.16125L9.58507 1.15905C9.55503 1.09897 9.53274 1.08394 9.53106 1.08282C9.52973 1.08194 9.52852 1.08125 9.52553 1.08039C9.52213 1.07942 9.51277 1.07724 9.49498 1.07724C9.47719 1.07724 9.46783 1.07942 9.46444 1.08039C9.46145 1.08125 9.46023 1.08194 9.45891 1.08282C9.45723 1.08394 9.43494 1.09897 9.4049 1.15905L9.40379 1.16125L6.95609 5.99695L6.83848 6.22929L6.58069 6.26612L1.14799 7.04222C1.09352 7.05 1.06914 7.06174 1.06159 7.06614C1.06126 7.06684 1.06089 7.0677 1.06047 7.06873C1.05904 7.07224 1.05701 7.07797 1.0549 7.08641C1.03646 7.16018 1.04233 7.21613 1.09276 7.28731L5.00452 11.0213Z" stroke="#FFC107"/>
</g>
<defs>
<clipPath id="clip0_29_689">
<rect width="17.92" height="17.91" fill="white" transform="matrix(1 0 0 -1 0.534912 17.95)"/>
</clipPath>
</defs>
</svg>
