<svg width="12" height="13" viewBox="0 0 12 13" fill="none" xmlns="http://www.w3.org/2000/svg">
<path d="M1.24012 4.20865C1.32012 4.12865 1.40678 4.08865 1.50012 4.08865C1.59345 4.08865 1.68012 4.12865 1.76012 4.20865L6.00012 8.44865L10.2401 4.20865C10.3201 4.12865 10.4068 4.08865 10.5001 4.08865C10.5935 4.08865 10.6801 4.12865 10.7601 4.20865C10.8401 4.28865 10.8801 4.38199 10.8801 4.48865C10.8801 4.59532 10.8401 4.67532 10.7601 4.72865L6.28012 9.24865C6.20012 9.32865 6.10678 9.36865 6.00012 9.36865C5.89345 9.36865 5.80012 9.32865 5.72012 9.24865L1.24012 4.72865C1.16012 4.67532 1.12012 4.59532 1.12012 4.48865C1.12012 4.38199 1.16012 4.28865 1.24012 4.20865Z" fill="white"/>
</svg>
