<svg width="17" height="17" viewBox="0 0 17 17" fill="none" xmlns="http://www.w3.org/2000/svg">
<g clip-path="url(#clip0_11_1261)">
<path d="M0.800049 1.90992C0.800049 1.62547 0.915604 1.36769 1.14672 1.13658C1.37783 0.905472 1.65338 0.789917 1.97338 0.789917H15.6267C15.9467 0.789917 16.2223 0.905472 16.4534 1.13658C16.6845 1.36769 16.8 1.62547 16.8 1.90992V15.6699C16.8 15.9544 16.6845 16.2121 16.4534 16.4433C16.2223 16.6744 15.9467 16.7899 15.6267 16.7899H1.97338C1.65338 16.7899 1.37783 16.6744 1.14672 16.4433C0.915604 16.2121 0.800049 15.9544 0.800049 15.6699V1.90992ZM5.76005 14.1766V6.97658H3.36005V14.1766H5.76005ZM4.53338 5.96325C4.96005 5.96325 5.29783 5.84769 5.54672 5.61658C5.7956 5.38547 5.91116 5.09214 5.89338 4.73658C5.8756 4.38103 5.75116 4.07881 5.52005 3.82992C5.28894 3.58103 4.96894 3.45658 4.56005 3.45658C4.15116 3.45658 3.82227 3.58103 3.57338 3.82992C3.32449 4.07881 3.20005 4.38103 3.20005 4.73658C3.20005 5.09214 3.32449 5.38547 3.57338 5.61658C3.82227 5.84769 4.14227 5.96325 4.53338 5.96325ZM9.44005 14.1766V10.1233C9.44005 9.87436 9.47561 9.67881 9.54672 9.53658C9.61783 9.32325 9.76005 9.12769 9.97338 8.94992C10.1867 8.77214 10.4534 8.68325 10.7734 8.68325C11.2 8.68325 11.5112 8.82547 11.7067 9.10992C11.9023 9.39436 12 9.80325 12 10.3366V14.1766H14.4V10.0166C14.4 8.94992 14.1423 8.14103 13.6267 7.58992C13.1112 7.03881 12.4445 6.76325 11.6267 6.76325C11.0578 6.76325 10.5778 6.90547 10.1867 7.18992C9.90227 7.36769 9.65338 7.63436 9.44005 7.98992V6.97658H7.04005C7.0756 7.26103 7.0756 8.54103 7.04005 10.8166V14.1766H9.44005Z" fill="#260426"/>
</g>
<defs>
<clipPath id="clip0_11_1261">
<rect width="16" height="16" fill="white" transform="matrix(1 0 0 -1 0.800049 16.7899)"/>
</clipPath>
</defs>
</svg>
