<svg width="19" height="18" viewBox="0 0 19 18" fill="none" xmlns="http://www.w3.org/2000/svg">
<g clip-path="url(#clip0_29_681)">
<path d="M4.36448 17.3529C4.12568 17.4325 3.91673 17.4027 3.73763 17.2634C3.55853 17.1241 3.48888 16.9151 3.52868 16.6365L4.42418 11.3829L0.483975 7.62184C0.324775 7.42284 0.275025 7.20394 0.334725 6.96514C0.394425 6.72634 0.563575 6.58704 0.842175 6.54724L6.27488 5.77114L8.72258 0.935444C8.84198 0.696644 9.02108 0.577244 9.25988 0.577244C9.49868 0.577244 9.67778 0.696644 9.79718 0.935444L12.2449 5.77114L17.7373 6.54724C17.9761 6.58704 18.1253 6.72634 18.185 6.96514C18.2447 7.20394 18.195 7.42284 18.0358 7.62184L14.0956 11.3829L14.9911 16.6365C15.0309 16.9151 14.9612 17.1241 14.7821 17.2634C14.603 17.4027 14.3941 17.4325 14.1553 17.3529L9.25988 14.7858L4.36448 17.3529Z" fill="#FFC107"/>
</g>
<defs>
<clipPath id="clip0_29_681">
<rect width="17.91" height="17.91" fill="white" transform="matrix(1 0 0 -1 0.304932 17.95)"/>
</clipPath>
</defs>
</svg>
