<svg width="17" height="17" viewBox="0 0 17 17" fill="none" xmlns="http://www.w3.org/2000/svg">
<g clip-path="url(#clip0_11_1255)">
<path d="M8.80005 0.789917C7.30672 0.789917 6.1956 0.807694 5.46672 0.84325C4.73783 0.878805 4.10672 1.00325 3.57338 1.21658C3.04005 1.42992 2.56894 1.74103 2.16005 2.14992C1.75116 2.55881 1.44005 3.02992 1.22672 3.56325C1.01338 4.09658 0.888938 4.72769 0.853382 5.45658C0.817827 6.18547 0.800049 7.29658 0.800049 8.78992C0.800049 10.2833 0.817827 11.3944 0.853382 12.1233C0.888938 12.8521 1.01338 13.4833 1.22672 14.0166C1.44005 14.5499 1.75116 15.021 2.16005 15.4299C2.56894 15.8388 3.04005 16.1499 3.57338 16.3633C4.10672 16.5766 4.73783 16.701 5.46672 16.7366C6.1956 16.7721 7.30672 16.7899 8.80005 16.7899C10.2934 16.7899 11.4045 16.7721 12.1334 16.7366C12.8623 16.701 13.4934 16.5766 14.0267 16.3633C14.56 16.1499 15.0312 15.8388 15.44 15.4299C15.8489 15.021 16.16 14.5499 16.3734 14.0166C16.5867 13.4833 16.7112 12.8521 16.7467 12.1233C16.7823 11.3944 16.8 10.2833 16.8 8.78992C16.8 7.29658 16.7823 6.18547 16.7467 5.45658C16.7112 4.72769 16.5867 4.09658 16.3734 3.56325C16.16 3.02992 15.8489 2.55881 15.44 2.14992C15.0312 1.74103 14.56 1.42992 14.0267 1.21658C13.4934 1.00325 12.8623 0.878805 12.1334 0.84325C11.4045 0.807694 10.2934 0.789917 8.80005 0.789917ZM8.10672 2.22992H8.80005C10.2934 2.22992 11.3778 2.24769 12.0534 2.28325C12.6223 2.31881 13.0934 2.40769 13.4667 2.54992C13.84 2.69214 14.16 2.89658 14.4267 3.16325C14.6934 3.42992 14.8978 3.74992 15.04 4.12325C15.1823 4.49658 15.2712 4.96769 15.3067 5.53658C15.3423 6.21214 15.36 7.29658 15.36 8.78992C15.36 10.2833 15.3423 11.3677 15.3067 12.0433C15.2712 12.6121 15.1823 13.0833 15.04 13.4566C14.8978 13.8299 14.6934 14.1499 14.4267 14.4166C14.16 14.6833 13.84 14.8877 13.4667 15.0299C13.0934 15.1721 12.6223 15.261 12.0534 15.2966C11.3423 15.3321 10.2578 15.3499 8.80005 15.3499C7.34227 15.3499 6.25783 15.3321 5.54672 15.2966C4.97783 15.261 4.50672 15.1721 4.13338 15.0299C3.76005 14.8877 3.44005 14.6833 3.17338 14.4166C2.90672 14.1499 2.70227 13.8299 2.56005 13.4566C2.41783 13.0833 2.32894 12.6121 2.29338 12.0433C2.25783 11.3321 2.24005 10.2388 2.24005 8.76325C2.24005 7.28769 2.25783 6.21214 2.29338 5.53658C2.32894 4.96769 2.41783 4.49658 2.56005 4.12325C2.70227 3.74992 2.90672 3.42992 3.17338 3.16325C3.44005 2.89658 3.76005 2.69214 4.13338 2.54992C4.50672 2.40769 4.9956 2.31881 5.60005 2.28325C6.20449 2.24769 7.04005 2.22992 8.10672 2.22992ZM13.0667 3.56325C12.8178 3.56325 12.5956 3.65214 12.4 3.82992C12.2045 4.00769 12.1067 4.22992 12.1067 4.49658C12.1067 4.76325 12.2045 4.99436 12.4 5.18992C12.5956 5.38547 12.8267 5.48325 13.0934 5.48325C13.36 5.48325 13.5823 5.38547 13.76 5.18992C13.9378 4.99436 14.0267 4.76325 14.0267 4.49658C14.0267 4.22992 13.9378 4.00769 13.76 3.82992C13.5823 3.65214 13.3512 3.56325 13.0667 3.56325ZM8.80005 4.68325C8.05338 4.68325 7.36005 4.86103 6.72005 5.21658C6.08005 5.57214 5.57338 6.06992 5.20005 6.70992C4.82672 7.34992 4.64005 8.04325 4.64005 8.78992C4.64005 9.53658 4.82672 10.2299 5.20005 10.8699C5.57338 11.5099 6.08005 12.0077 6.72005 12.3633C7.36005 12.7188 8.05338 12.8966 8.80005 12.8966C9.54672 12.8966 10.2312 12.7099 10.8534 12.3366C11.4756 11.9633 11.9645 11.4655 12.32 10.8433C12.6756 10.221 12.8534 9.53658 12.8534 8.78992C12.8534 8.04325 12.6756 7.35881 12.32 6.73658C11.9645 6.11436 11.4756 5.61658 10.8534 5.24325C10.2312 4.86992 9.54672 4.68325 8.80005 4.68325ZM8.80005 6.12325C9.26227 6.12325 9.70672 6.23881 10.1334 6.46992C10.56 6.70103 10.8889 7.02992 11.12 7.45658C11.3512 7.88325 11.4667 8.32769 11.4667 8.78992C11.4667 9.25214 11.3512 9.69658 11.12 10.1233C10.8889 10.5499 10.56 10.8788 10.1334 11.1099C9.70672 11.341 9.26227 11.4566 8.80005 11.4566C8.05338 11.4566 7.42227 11.1988 6.90672 10.6832C6.39116 10.1677 6.13338 9.53658 6.13338 8.78992C6.13338 8.04325 6.39116 7.41214 6.90672 6.89658C7.42227 6.38103 8.05338 6.12325 8.80005 6.12325Z" fill="#260426"/>
</g>
<defs>
<clipPath id="clip0_11_1255">
<rect width="16" height="16" fill="white" transform="matrix(1 0 0 -1 0.800049 16.7899)"/>
</clipPath>
</defs>
</svg>
