<svg width="18" height="18" viewBox="0 0 18 18" fill="none" xmlns="http://www.w3.org/2000/svg">
<g clip-path="url(#clip0_29_673)">
<path d="M4.1196 17.3529C3.8808 17.4325 3.67185 17.4027 3.49275 17.2634C3.31365 17.1241 3.244 16.9151 3.2838 16.6365L4.1793 11.3829L0.239102 7.62184C0.0799024 7.42284 0.0301524 7.20394 0.0898524 6.96514C0.149552 6.72634 0.318702 6.58704 0.597302 6.54724L6.03 5.77114L8.4777 0.935444C8.5971 0.696644 8.7762 0.577244 9.015 0.577244C9.2538 0.577244 9.4329 0.696644 9.5523 0.935444L12 5.77114L17.4924 6.54724C17.7312 6.58704 17.8805 6.72634 17.9402 6.96514C17.9999 7.20394 17.9501 7.42284 17.7909 7.62184L13.8507 11.3829L14.7462 16.6365C14.786 16.9151 14.7164 17.1241 14.5373 17.2634C14.3582 17.4027 14.1492 17.4325 13.9104 17.3529L9.015 14.7858L4.1196 17.3529Z" fill="#FFC107"/>
</g>
<defs>
<clipPath id="clip0_29_673">
<rect width="17.92" height="17.91" fill="white" transform="matrix(1 0 0 -1 0.0549316 17.95)"/>
</clipPath>
</defs>
</svg>
