<svg width="38" height="39" viewBox="0 0 38 39" fill="none" xmlns="http://www.w3.org/2000/svg">
<g clip-path="url(#clip0_11_1117)">
<path d="M19 9.02504C19 8.68726 18.8944 8.39171 18.6833 8.13837C18.4722 7.88504 18.1978 7.75837 17.86 7.75837C17.5222 7.75837 17.2267 7.88504 16.9733 8.13837C16.72 8.39171 16.5933 8.68726 16.5933 9.02504V22.0717C16.5933 22.4939 16.8044 22.8317 17.2267 23.085L25.5867 27.7717C25.84 27.9406 26.1144 27.9828 26.41 27.8984C26.7056 27.8139 26.9378 27.6239 27.1067 27.3284C27.2756 27.0328 27.3178 26.7373 27.2333 26.4417C27.1489 26.1462 26.98 25.9139 26.7267 25.745L19 21.3117V9.02504ZM19 38.665C22.4622 38.665 25.65 37.8206 28.5633 36.1317C31.4767 34.4428 33.7778 32.1417 35.4667 29.2284C37.1556 26.315 38 23.1273 38 19.665C38 16.2028 37.1556 13.015 35.4667 10.1017C33.7778 7.18837 31.4767 4.88726 28.5633 3.19837C25.65 1.50948 22.4622 0.665039 19 0.665039C15.5378 0.665039 12.35 1.50948 9.43667 3.19837C6.52333 4.88726 4.22222 7.18837 2.53333 10.1017C0.844444 13.015 0 16.2028 0 19.665C0 23.1273 0.844444 26.315 2.53333 29.2284C4.22222 32.1417 6.52333 34.4428 9.43667 36.1317C12.35 37.8206 15.5378 38.665 19 38.665ZM35.5933 19.665C35.5933 22.705 34.8544 25.4917 33.3767 28.025C31.8989 30.5584 29.8933 32.5639 27.36 34.0417C24.8267 35.5195 22.04 36.2584 19 36.2584C15.96 36.2584 13.1733 35.5195 10.64 34.0417C8.10667 32.5639 6.10111 30.5584 4.62333 28.025C3.14556 25.4917 2.40667 22.705 2.40667 19.665C2.40667 16.625 3.14556 13.8384 4.62333 11.305C6.10111 8.77171 8.10667 6.76615 10.64 5.28837C13.1733 3.8106 15.96 3.0717 19 3.0717C22.04 3.0717 24.8267 3.8106 27.36 5.28837C29.8933 6.76615 31.8989 8.77171 33.3767 11.305C34.8544 13.8384 35.5933 16.625 35.5933 19.665Z" fill="#260426"/>
</g>
<defs>
<clipPath id="clip0_11_1117">
<rect width="38" height="38" fill="white" transform="matrix(1 0 0 -1 0 38.665)"/>
</clipPath>
</defs>
</svg>
