<svg width="56" height="47" viewBox="0 0 56 47" fill="none" xmlns="http://www.w3.org/2000/svg">
<g clip-path="url(#clip0_11_216)">
<path d="M0.498632 13.4355C0.505565 13.4843 0.519431 13.5262 0.533298 13.568C0.547164 13.6098 0.567963 13.6517 0.595695 13.6935C0.616494 13.7353 0.637294 13.7702 0.665026 13.8051C0.699691 13.8469 0.74129 13.8818 0.782888 13.9166C0.81062 13.9375 0.838352 13.9654 0.873018 13.9864C0.873018 13.9864 0.886884 13.9933 0.893817 14.0003C0.977014 14.0491 3.01533 15.1926 3.57691 18.5671C3.63238 18.9157 3.68784 19.4944 3.75717 20.2265C4.37421 26.8502 6.25308 47 26.1232 47C26.7333 47 27.3643 46.9791 27.9952 46.9372C28.6261 46.9721 29.257 47 29.8671 47C49.7373 47 51.6092 26.8502 52.2262 20.2265C52.2956 19.4944 52.351 18.9227 52.4065 18.5671C52.9681 15.1926 55.0064 14.0421 55.0826 14.0003C55.0896 14.0003 55.0965 13.9864 55.1034 13.9794C55.1312 13.9654 55.152 13.9445 55.1728 13.9236C55.2282 13.8818 55.2768 13.8399 55.3184 13.7911C55.3392 13.7632 55.353 13.7423 55.3669 13.7144C55.4016 13.6587 55.4293 13.6029 55.4501 13.5471C55.457 13.5122 55.4709 13.4843 55.4778 13.4565C55.4917 13.3937 55.4917 13.324 55.4848 13.2543C55.4848 13.2333 55.4848 13.2124 55.4848 13.1915C55.4848 13.1776 55.4778 13.1706 55.4778 13.1636C55.4778 13.1497 55.4778 13.1357 55.4778 13.1218C55.464 13.08 55.4432 13.0381 55.4224 13.0033C55.4085 12.9684 55.4016 12.9405 55.3808 12.9126C55.353 12.8638 55.3114 12.822 55.2768 12.7871C55.256 12.7662 55.2352 12.7313 55.2074 12.7104C55.1658 12.6756 55.1173 12.6546 55.0688 12.6268C55.041 12.6128 55.0133 12.5919 54.9786 12.578C54.9163 12.557 54.8539 12.5501 54.7845 12.5431C54.7637 12.5431 54.736 12.5291 54.7152 12.5291C54.7152 12.5291 54.7152 12.5291 54.7083 12.5291H46.548C45.3972 12.5291 44.2671 12.6407 43.1647 12.8359C43.6708 8.38066 42.4853 4.86664 42.4298 4.70627C42.4298 4.70627 42.4298 4.6993 42.4229 4.69233C42.4229 4.69233 42.4229 4.69233 42.4229 4.68536C42.409 4.6505 42.3882 4.62261 42.3674 4.59472C42.3466 4.55986 42.3327 4.51802 42.305 4.48316C42.2773 4.4483 42.2426 4.42041 42.208 4.39252C42.1802 4.37161 42.1594 4.34372 42.1317 4.3228C42.0832 4.28794 42.0277 4.26702 41.9722 4.24611C41.9584 4.24611 41.9445 4.23216 41.9237 4.22519C41.8474 4.20427 41.7712 4.19033 41.688 4.19033C41.6741 4.19033 41.6602 4.1973 41.6394 4.1973C41.5701 4.1973 41.5008 4.21124 41.4314 4.23216C41.4314 4.23216 41.4314 4.23216 41.4245 4.23216C41.4245 4.23216 41.4176 4.23216 41.4106 4.23216C41.2581 4.28794 37.951 5.6057 34.956 8.75019C32.3283 3.86263 28.737 0.418336 28.5221 0.21614C28.4735 0.174306 28.4181 0.146417 28.3626 0.118528C28.3349 0.104584 28.3072 0.0766948 28.2794 0.0627503C28.1893 0.027889 28.0853 0 27.9882 0C27.8912 0 27.7872 0.0209168 27.697 0.0627503C27.6693 0.0766948 27.6416 0.0976116 27.6138 0.118528C27.5584 0.146417 27.5029 0.174306 27.4544 0.21614C27.2395 0.418336 23.6412 3.8696 21.0205 8.75019C18.0185 5.6057 14.7183 4.29491 14.5658 4.23216H14.552C14.552 4.23216 14.552 4.23216 14.545 4.23216C14.4757 4.21124 14.4064 4.20427 14.337 4.1973C14.3232 4.1973 14.3093 4.19033 14.2885 4.19033C14.2053 4.19033 14.129 4.20427 14.0528 4.22519C14.032 4.22519 14.0181 4.24611 13.9973 4.25308C13.9488 4.27399 13.8933 4.29491 13.8448 4.32977C13.817 4.35069 13.7962 4.37858 13.7685 4.3995C13.7339 4.42738 13.7061 4.45527 13.6784 4.49013C13.6507 4.525 13.6368 4.56683 13.616 4.60169C13.6021 4.62958 13.5744 4.65747 13.5675 4.69233C13.5675 4.69233 13.5675 4.69233 13.5675 4.6993C13.5675 4.6993 13.5675 4.70627 13.5605 4.71325C13.5051 4.87361 12.3195 8.38763 12.8256 12.8429C11.7233 12.6477 10.6001 12.5361 9.44229 12.5361H1.2682C1.2682 12.5361 1.2682 12.5361 1.26127 12.5361C1.24047 12.5361 1.21274 12.5431 1.19194 12.5501C1.12954 12.5501 1.06021 12.564 0.997813 12.5849C0.956215 12.5989 0.921549 12.6268 0.886884 12.6477C0.845286 12.6686 0.803687 12.6895 0.769022 12.7174C0.734356 12.7453 0.706624 12.7871 0.671959 12.822C0.65116 12.8499 0.623427 12.8778 0.602628 12.9126C0.574896 12.9545 0.56103 13.0033 0.540231 13.0521C0.533298 13.08 0.512498 13.1009 0.505565 13.1357C0.505565 13.1427 0.505565 13.1567 0.505565 13.1636C0.505565 13.1776 0.491699 13.1915 0.491699 13.2124C0.491699 13.2473 0.491699 13.2752 0.491699 13.3031C0.491699 13.3519 0.491699 13.4007 0.498632 13.4565V13.4355ZM5.30325 20.0871C5.23391 19.3271 5.17845 18.7205 5.10912 18.3161C4.8734 16.8798 4.39501 15.7643 3.87503 14.9206C7.11971 16.2454 12.3888 19.5223 14.7045 27.3103C16.5764 33.5993 19.5368 41.7847 24.6118 45.3894C7.57729 44.4133 5.93415 26.8293 5.30325 20.0871ZM50.6663 20.0801C50.0354 26.8223 48.3922 44.4063 31.3577 45.3824C36.4258 41.7778 39.3931 33.5993 41.2651 27.3034C43.6084 19.4108 48.8776 16.1617 52.1153 14.8718C51.5815 15.7224 51.1031 16.845 50.8604 18.3022C50.7911 18.7066 50.7356 19.3062 50.6663 20.0731V20.0801ZM50.1602 14.0909C46.6382 15.8549 41.9584 19.5014 39.7675 26.8571C37.7569 33.6202 34.4637 42.6633 28.7647 45.0547V31.9748C28.7647 23.5453 34.5954 16.4685 42.409 14.586C43.7332 14.2652 45.1198 14.0909 46.5411 14.0909H50.1532H50.1602ZM41.1888 6.05889C41.5077 7.36968 41.993 10.0889 41.5424 13.1915C40.0518 13.5959 38.6236 14.1676 37.2924 14.8997C36.9388 13.2752 36.3772 11.7064 35.6978 10.2422C37.7223 7.98324 40.0102 6.64456 41.1819 6.05192L41.1888 6.05889ZM27.9813 1.89645C29.6314 3.6186 34.6856 9.33585 35.8711 15.7643C32.1134 18.2743 29.2709 22.0672 27.9813 26.5225C26.6848 22.0672 23.8492 18.2743 20.0845 15.7643C21.2701 9.33585 26.3243 3.6186 27.9813 1.89645ZM14.7807 6.05889C15.9524 6.65153 18.2473 7.99021 20.2648 10.2422C19.5854 11.7064 19.0238 13.2752 18.6702 14.8997C17.339 14.1676 15.9178 13.5959 14.4272 13.1915C13.9765 10.0889 14.4618 7.36968 14.7807 6.05889ZM27.2048 31.9748V45.0547C21.5058 42.6633 18.2126 33.6202 16.202 26.8571C14.0112 19.5014 9.33136 15.8549 5.80936 14.0909H9.42149C19.2248 14.0909 27.2048 22.116 27.2048 31.9748Z" fill="#260426"/>
</g>
<defs>
<clipPath id="clip0_11_216">
<rect width="55" height="47" fill="white" transform="translate(0.484863)"/>
</clipPath>
</defs>
</svg>
