<svg width="65" height="55" viewBox="0 0 65 55" fill="none" xmlns="http://www.w3.org/2000/svg">
<g clip-path="url(#clip0_28_180)">
<path d="M47.0809 43.2871C47.0809 43.2871 47.1116 43.2871 47.1346 43.2871H47.15C47.1576 43.2871 47.173 43.2871 47.1807 43.2871C47.2114 43.2871 47.2344 43.2717 47.2651 43.264C47.6487 43.2022 47.9403 42.8858 47.9403 42.4845C47.9403 42.4151 47.9326 42.3379 47.9096 42.2762C47.8405 41.4736 47.4415 37.7076 45.6691 34.0497C45.6922 34.0497 45.7152 34.0497 45.7459 34.0497C52.8508 34.0497 59.2114 28.4934 59.48 28.2541C59.6564 28.0998 59.7485 27.8837 59.7485 27.6522C59.7485 27.4207 59.6488 27.1969 59.48 27.0503C59.2114 26.811 52.8431 21.2547 45.7459 21.2547C45.7229 21.2547 45.6998 21.2547 45.6845 21.2547C47.6257 17.2341 47.9172 13.0745 47.9326 12.8739C47.9326 12.8507 47.9326 12.8353 47.9326 12.8122C47.9326 12.7967 47.9326 12.789 47.9326 12.7736C47.9326 12.7581 47.9249 12.7427 47.9172 12.7273C47.9096 12.6501 47.8866 12.5806 47.8559 12.5112C47.8482 12.488 47.8405 12.4726 47.8328 12.4494C47.7868 12.3646 47.7331 12.2874 47.6564 12.2257C47.6487 12.2179 47.6334 12.2102 47.618 12.2025C47.5643 12.1639 47.5183 12.1253 47.4569 12.0945C47.4492 12.0945 47.4339 12.0945 47.4262 12.0867C47.3878 12.0713 47.3495 12.0636 47.3111 12.0559C47.2497 12.0404 47.196 12.0327 47.1346 12.0327C47.1116 12.0327 47.0963 12.025 47.0809 12.0327C46.8891 12.0482 42.7612 12.3414 38.7714 14.2784C38.8098 7.12463 33.2624 0.696258 33.0092 0.410725C32.8558 0.240948 32.6409 0.140625 32.4107 0.140625C32.1806 0.140625 31.9657 0.240948 31.8123 0.410725C31.5591 0.703976 25.9964 7.14006 26.0578 14.3093C22.0526 12.3414 17.8863 12.0404 17.6945 12.0327C17.6715 12.0327 17.6485 12.0327 17.6255 12.0327C17.6178 12.0327 17.6025 12.0327 17.5948 12.0327C17.5794 12.0327 17.5718 12.0404 17.5564 12.0404C17.472 12.0482 17.3876 12.0713 17.3109 12.1099C17.3032 12.1099 17.2879 12.1099 17.2802 12.1253C17.1267 12.2102 16.9963 12.3414 16.9196 12.5035C16.9196 12.5189 16.9196 12.5266 16.9119 12.5421C16.9042 12.5729 16.8966 12.5961 16.8889 12.6269C16.8736 12.6964 16.8582 12.7659 16.8582 12.8353C16.8582 12.8507 16.8582 12.8662 16.8582 12.8816C16.8736 13.0745 17.1574 17.2264 19.091 21.2393C19.0756 21.2393 19.0679 21.2393 19.0526 21.2393C11.9554 21.2393 5.5947 26.7956 5.32616 27.0271C5.15736 27.1815 5.05762 27.3975 5.05762 27.629C5.05762 27.8606 5.15736 28.0766 5.32616 28.231C5.5947 28.4702 11.9554 34.0266 19.0603 34.0266C19.0833 34.0266 19.0986 34.0266 19.1216 34.0266C17.1651 38.0549 16.8736 42.2376 16.8582 42.4305C16.8582 42.4537 16.8582 42.4691 16.8582 42.4922C16.8582 42.5077 16.8582 42.5231 16.8582 42.5308C16.8582 42.554 16.8659 42.5617 16.8735 42.5848C16.8812 42.6466 16.8966 42.7083 16.9196 42.7701C16.9273 42.8009 16.9426 42.8241 16.9503 42.8549C16.9886 42.9167 17.027 42.9784 17.0807 43.0324C17.0884 43.0479 17.1037 43.0633 17.1114 43.071C17.1728 43.125 17.2418 43.1791 17.3186 43.2099C17.3186 43.2099 17.3262 43.2099 17.3339 43.2099C17.4337 43.2485 17.5334 43.2794 17.6485 43.2794C17.6485 43.2794 17.6792 43.2794 17.7022 43.2794C17.894 43.264 22.0373 42.9707 26.0347 41.0183C26.004 48.1643 31.5437 54.585 31.7893 54.8705C31.9427 55.0403 32.1575 55.1406 32.3877 55.1406C32.6179 55.1406 32.8327 55.0403 32.9862 54.8705C33.2394 54.585 38.7791 48.1643 38.7484 41.0106C42.7459 42.9707 46.8968 43.264 47.0886 43.2794L47.0809 43.2871ZM38.6026 39.143C38.5873 39.0195 38.5566 38.9038 38.5412 38.788C38.5182 38.68 38.5029 38.5797 38.4798 38.4716C38.4338 38.2401 38.3801 38.0163 38.3187 37.7925C38.3034 37.7308 38.288 37.6613 38.265 37.5996C38.1806 37.314 38.0885 37.0285 37.9888 36.7507C37.9581 36.6735 37.9274 36.5964 37.8967 36.5115C37.82 36.3108 37.7356 36.1102 37.6435 35.9172C37.5975 35.8169 37.5514 35.7166 37.4977 35.624C37.4133 35.4465 37.3213 35.2767 37.2215 35.0992C37.1678 34.9989 37.1141 34.9063 37.0527 34.806C36.9453 34.6285 36.8379 34.451 36.7228 34.2735C36.6691 34.1886 36.6154 34.1114 36.5617 34.0266C36.3929 33.7873 36.2164 33.5481 36.0322 33.3166C36.0246 33.3011 36.0169 33.2934 36.0092 33.278C36.0092 33.278 36.0092 33.2703 36.0016 33.2626C36.0246 33.2471 36.0553 33.224 36.0783 33.2085C36.1704 33.1468 36.2548 33.0851 36.3392 33.0233C36.3929 32.9847 36.4389 32.9539 36.4926 32.9153L44.8865 41.3578C43.1909 41.026 40.8047 40.3778 38.6179 39.143H38.6026ZM26.1805 39.1353C23.9938 40.3623 21.6076 41.0183 19.9043 41.3501L28.1217 33.0851C28.2905 33.2085 28.467 33.3243 28.6435 33.4323C27.3084 35.1378 26.4874 37.0517 26.1728 39.1353H26.1805ZM20.9554 21.3859C19.7431 19.1942 19.0986 16.8019 18.7687 15.0964L26.7636 23.1377C26.6255 23.3075 26.5028 23.4849 26.3877 23.6702C24.7534 22.4431 22.935 21.6869 20.9554 21.3859ZM30.2087 32.4291C29.6102 32.1899 29.0731 31.8503 28.6051 31.4182C28.3672 31.2021 28.1601 30.9628 27.9683 30.7159C27.9145 30.6387 27.8685 30.5616 27.8225 30.4844C27.6997 30.2992 27.5693 30.1217 27.4695 29.9288C27.4695 29.921 27.4619 29.9056 27.4542 29.8979C27.155 29.3268 26.9708 28.7094 26.8941 28.0612C26.8711 27.8683 26.8634 27.6599 26.8634 27.4593C26.8634 27.3821 26.8634 27.3049 26.8634 27.2046C26.8941 26.5101 27.0552 25.8541 27.3468 25.229C27.6 24.6579 27.9606 24.1409 28.4209 23.6779C28.889 23.2071 29.4261 22.8367 30.0169 22.5743C30.6153 22.3042 31.2598 22.1422 31.9504 22.1113C32.0118 22.1113 32.0731 22.1113 32.1345 22.1113C32.3417 22.1113 32.5719 22.1267 32.779 22.1422C33.4312 22.2116 34.0527 22.4045 34.6281 22.7055C35.2036 23.0065 35.7023 23.3923 36.1166 23.8631C36.5386 24.3338 36.8916 24.8972 37.1294 25.4914C37.3596 26.0625 37.4824 26.6876 37.5054 27.3049V27.4593C37.5054 27.6213 37.5054 27.7834 37.4824 27.9377C37.4594 28.2387 37.4057 28.5397 37.3289 28.8252C37.2522 29.1185 37.1525 29.3963 37.022 29.6741C36.7535 30.2606 36.3929 30.7854 35.9325 31.2407C35.7177 31.4645 35.4798 31.6651 35.2266 31.8426C34.9734 32.0201 34.6972 32.1822 34.4056 32.3211C33.8609 32.5757 33.2778 32.7378 32.6639 32.7841C32.5105 32.7995 32.3494 32.8072 32.1882 32.8072H32.0578C31.4056 32.7841 30.7841 32.6606 30.2164 32.4214L30.2087 32.4291ZM38.6179 16.1691C40.797 14.9498 43.1679 14.3016 44.8712 13.9697L36.6844 22.2039C36.5233 22.065 36.3622 21.9338 36.1857 21.8026C37.4901 20.1126 38.3034 18.2219 38.6179 16.1768V16.1691ZM43.7893 33.8954C45.017 36.0947 45.6691 38.4948 45.9991 40.2157L37.6052 31.7731C37.7356 31.6111 37.8507 31.4413 37.9658 31.2715C39.6998 32.6915 41.6487 33.5712 43.7893 33.9031V33.8954ZM57.6769 27.6522C55.8431 29.0644 50.9096 32.4445 45.7459 32.4445C45.2855 32.4445 44.8328 32.4214 44.3955 32.3674C42.2932 32.1127 40.375 31.2484 38.71 29.7898C38.71 29.7898 38.71 29.7821 38.71 29.7744C38.7944 29.5352 38.8635 29.2882 38.9249 29.0336C38.9402 28.9718 38.9555 28.9024 38.9632 28.8406C39.0169 28.586 39.0553 28.3236 39.0783 28.0612C39.0937 27.8606 39.1013 27.6522 39.1013 27.4438V27.2663C39.0937 26.9808 39.063 26.703 39.0246 26.4252C39.0169 26.3634 39.0016 26.294 38.9939 26.2322C38.9479 25.9621 38.8865 25.692 38.8098 25.4297C38.8558 25.3834 38.9018 25.3448 38.9555 25.3062C39.0553 25.229 39.155 25.1441 39.2471 25.0747C39.3699 24.9821 39.4926 24.8895 39.6077 24.8046C39.7075 24.7351 39.8149 24.658 39.9223 24.5885C40.0451 24.5036 40.1678 24.4264 40.2983 24.357C40.4057 24.2952 40.5131 24.2258 40.6205 24.1718C40.7509 24.1023 40.8814 24.0329 41.0118 23.9711C41.1192 23.9171 41.2267 23.8631 41.3417 23.8091C41.4799 23.7473 41.618 23.6933 41.7561 23.6316C41.8635 23.5853 41.9709 23.539 42.0783 23.5004C42.2241 23.4464 42.3776 23.4001 42.5233 23.3538C42.6231 23.3229 42.7305 23.2843 42.8302 23.2534C42.9991 23.2071 43.1678 23.1685 43.3443 23.13C43.4364 23.1068 43.5208 23.0837 43.6129 23.0682C43.8737 23.0142 44.1423 22.9756 44.4108 22.937C44.8482 22.883 45.3009 22.8599 45.7535 22.8599C50.9173 22.8599 55.8585 26.24 57.6846 27.6522H57.6769ZM43.8124 21.4013C43.6973 21.4168 43.5822 21.4476 43.4594 21.4631C43.3597 21.4785 43.2599 21.4939 43.1679 21.5171C42.93 21.5634 42.6998 21.6251 42.4696 21.6869C42.4159 21.7023 42.3622 21.71 42.3162 21.7254C42.04 21.8026 41.7637 21.8952 41.4875 21.9955C41.4108 22.0264 41.3341 22.0573 41.2497 22.0881C41.0579 22.1653 40.866 22.2425 40.6742 22.3274C40.5745 22.3737 40.4824 22.42 40.3827 22.4663C40.2139 22.5512 40.0451 22.6361 39.8763 22.7287C39.7842 22.7827 39.6844 22.8367 39.5924 22.8907C39.4159 22.9911 39.2394 23.1068 39.0706 23.2148C38.9939 23.2689 38.9172 23.3152 38.8405 23.3692C38.6026 23.5312 38.3724 23.701 38.1422 23.8862C38.1269 23.8631 38.1115 23.8399 38.0962 23.8168C38.0348 23.7165 37.9734 23.6239 37.9044 23.5235C37.866 23.4618 37.8277 23.4001 37.7893 23.346L46.0067 15.081C45.6768 16.7865 45.0323 19.1865 43.8124 21.3782V21.4013ZM32.4107 2.21653C33.9299 4.21527 37.7586 9.88736 37.0988 15.5595C36.8609 17.5505 36.086 19.3794 34.7816 21C34.7816 21 34.7663 21 34.7586 21C34.5054 20.8997 34.2522 20.8148 33.9836 20.7454C33.9146 20.7299 33.8455 20.7068 33.7765 20.6913C33.5003 20.6296 33.2317 20.5756 32.9478 20.5447C32.5795 20.5061 32.1422 20.483 31.843 20.5139C31.5514 20.5293 31.2598 20.5679 30.976 20.6219C30.9069 20.6373 30.8455 20.645 30.7765 20.6605C30.4926 20.7222 30.2164 20.7917 29.9401 20.8843C29.9401 20.8843 29.8864 20.8148 29.8557 20.784C29.7867 20.6913 29.7176 20.591 29.6486 20.4984C29.5642 20.3827 29.4798 20.2669 29.403 20.1434C29.3417 20.0508 29.2803 19.9505 29.2189 19.8502C29.1422 19.7267 29.0731 19.6109 29.0041 19.4875C28.9504 19.3871 28.889 19.2868 28.8429 19.1865C28.7816 19.063 28.7202 18.9396 28.6588 18.8161C28.6128 18.7158 28.5591 18.6077 28.513 18.5074C28.4593 18.3839 28.4056 18.2527 28.3596 18.1215C28.3212 18.0135 28.2752 17.9132 28.2368 17.8051C28.1908 17.6739 28.1524 17.5428 28.114 17.4038C28.0833 17.2958 28.045 17.1955 28.022 17.0874C27.9836 16.9408 27.9529 16.7942 27.9222 16.6476C27.8992 16.5472 27.8762 16.4546 27.8608 16.3543C27.8225 16.146 27.7918 15.9299 27.7611 15.7138C27.7611 15.6752 27.7458 15.6443 27.7458 15.6058C27.0552 9.92595 30.8992 4.2307 32.4261 2.23197L32.4107 2.21653ZM26.2035 16.1923C26.2035 16.2386 26.2266 16.2849 26.2342 16.3312C26.3033 16.7633 26.3954 17.1878 26.5104 17.6045C26.5181 17.6354 26.5335 17.6662 26.5411 17.6971C26.6562 18.0907 26.7943 18.4842 26.9478 18.8701C26.9785 18.9473 27.0092 19.0244 27.0399 19.0939C27.2087 19.4875 27.3928 19.8656 27.6076 20.2438C27.646 20.3132 27.692 20.3904 27.7381 20.4598C27.9529 20.8303 28.1908 21.193 28.444 21.5479C28.4516 21.5634 28.4593 21.5788 28.4747 21.5942C28.444 21.6097 28.4209 21.6328 28.3903 21.656C28.2752 21.7332 28.1601 21.818 28.0527 21.8952C27.9989 21.9338 27.9452 21.9647 27.8992 22.011L19.9119 13.9774C21.6229 14.3093 24.0245 14.9652 26.2112 16.2L26.2035 16.1923ZM7.11389 27.629C8.93999 26.2245 13.8659 22.8444 19.0372 22.8444C19.4823 22.8444 19.9196 22.8676 20.3493 22.9216C22.2981 23.1454 24.0782 23.8862 25.6511 25.1364C25.6511 25.1364 25.6511 25.1441 25.6511 25.1518C25.5514 25.4297 25.4746 25.7152 25.4133 26.0084C25.3979 26.0779 25.3826 26.1474 25.3749 26.2245C25.3212 26.5178 25.2828 26.811 25.2675 27.1043C25.2598 27.22 25.2598 27.3358 25.2598 27.4593C25.2598 27.7217 25.2751 27.9763 25.3058 28.231C25.3365 28.5088 25.3902 28.7866 25.4516 29.0567C25.467 29.1262 25.4823 29.1879 25.4977 29.2574C25.5667 29.5197 25.6511 29.7898 25.7585 30.0445C25.7202 30.0754 25.6895 30.1062 25.6511 30.1294C25.559 30.1989 25.467 30.2683 25.3749 30.3378C25.2521 30.4304 25.1294 30.5153 25.0066 30.6001C24.9145 30.6619 24.8148 30.7236 24.7227 30.7854C24.5923 30.8625 24.4695 30.9474 24.3391 31.0169C24.247 31.0709 24.1473 31.1249 24.0475 31.1789C23.9171 31.2484 23.779 31.3178 23.6485 31.3796C23.5488 31.4259 23.4567 31.4722 23.357 31.5185C23.2189 31.5802 23.0731 31.6342 22.935 31.6883C22.8352 31.7268 22.7432 31.7654 22.6434 31.804C22.4976 31.858 22.3442 31.9043 22.1907 31.9506C22.0986 31.9815 22.0066 32.0124 21.9068 32.0355C21.738 32.0818 21.5692 32.1204 21.4004 32.159C21.316 32.1744 21.2393 32.1976 21.1549 32.213C20.9017 32.2593 20.6485 32.3056 20.3876 32.3365C19.9503 32.3905 19.4976 32.4137 19.0449 32.4137C13.8812 32.4137 8.94766 29.0336 7.11389 27.6213V27.629ZM20.9784 33.8876C21.0859 33.8722 21.1856 33.8491 21.293 33.8259C21.3928 33.8105 21.5002 33.7873 21.5999 33.7719C21.8071 33.7256 22.0143 33.6793 22.2214 33.6253C22.2905 33.6098 22.3595 33.5944 22.4286 33.5712C22.6971 33.4941 22.9657 33.4092 23.2265 33.3089C23.2956 33.2857 23.3723 33.2548 23.4414 33.224C23.6332 33.1468 23.825 33.0696 24.0168 32.9847C24.1089 32.9462 24.2086 32.8998 24.3007 32.8535C24.4695 32.7764 24.6306 32.6915 24.7918 32.6066C24.8838 32.5526 24.9836 32.5063 25.0757 32.4523C25.2368 32.3596 25.4056 32.2593 25.5667 32.159C25.6511 32.105 25.7355 32.0587 25.8199 31.9969C26.0347 31.858 26.2419 31.7037 26.4491 31.5494C26.4798 31.5262 26.5028 31.5108 26.5335 31.4876C26.5565 31.5185 26.5795 31.5493 26.6025 31.5802C26.6716 31.6728 26.7406 31.7577 26.8097 31.8503C26.848 31.9043 26.8864 31.9506 26.9324 32.0047L18.761 40.2234C19.091 38.5025 19.7355 36.0947 20.9631 33.8954L20.9784 33.8876ZM32.3801 53.0647C30.8609 51.0737 27.0322 45.4093 27.692 39.7372C27.9299 37.6613 28.7585 35.7706 30.1473 34.1114C30.1473 34.1114 30.1473 34.1114 30.155 34.1114C30.4158 34.1886 30.6844 34.2503 30.9606 34.2966C31.0297 34.3121 31.091 34.3198 31.1601 34.3275C31.444 34.3661 31.7279 34.397 32.0194 34.4047H32.1729C32.3801 34.4047 32.5872 34.397 32.7867 34.3815C33.0553 34.3584 33.3161 34.3121 33.5693 34.2658C33.6384 34.2503 33.6998 34.2349 33.7688 34.2195C34.0143 34.1577 34.2599 34.096 34.4977 34.0111C34.4977 34.0111 34.5054 34.0111 34.5131 34.0111C34.5514 34.0574 34.5975 34.1037 34.6358 34.15C34.7202 34.2503 34.7969 34.3584 34.8813 34.4587C34.9734 34.5822 35.0655 34.7057 35.1576 34.8291C35.2343 34.9372 35.3033 35.0452 35.3801 35.1455C35.4645 35.2767 35.5412 35.4002 35.6256 35.5314C35.6947 35.6394 35.756 35.7475 35.8174 35.8555C35.8941 35.9867 35.9632 36.1256 36.0246 36.2568C36.0783 36.3648 36.132 36.4806 36.1857 36.5886C36.2471 36.7275 36.3085 36.8665 36.3622 37.0131C36.4082 37.1211 36.4543 37.2292 36.4926 37.3449C36.5463 37.4993 36.5924 37.6459 36.6461 37.8002C36.6768 37.9083 36.7151 38.0163 36.7458 38.1166C36.7919 38.2864 36.8302 38.4639 36.8686 38.6337C36.8916 38.7263 36.9146 38.8189 36.93 38.9115C36.9837 39.1662 37.022 39.4285 37.0527 39.6909C37.0527 39.7064 37.0527 39.7141 37.0527 39.7295C37.7202 45.3939 33.8839 51.066 32.3647 53.0647H32.3801Z" fill="#220F25"/>
</g>
<defs>
<clipPath id="clip0_28_180">
<rect width="64" height="55" fill="white" transform="translate(0.984863)"/>
</clipPath>
</defs>
</svg>
