<svg width="23" height="22" viewBox="0 0 23 22" fill="none" xmlns="http://www.w3.org/2000/svg">
<path fill-rule="evenodd" clip-rule="evenodd" d="M9.55143 5.5V7.33333H4.9681V17.4167H15.0514V12.8333H16.8848V18.3333C16.8848 18.5764 16.7882 18.8096 16.6163 18.9815C16.4444 19.1534 16.2112 19.25 15.9681 19.25H4.05143C3.80832 19.25 3.57516 19.1534 3.40325 18.9815C3.23134 18.8096 3.13477 18.5764 3.13477 18.3333V6.41667C3.13477 6.17355 3.23134 5.94039 3.40325 5.76849C3.57516 5.59658 3.80832 5.5 4.05143 5.5H9.55143ZM19.6348 2.75V10.0833H17.8014V5.87858L10.6578 13.0231L9.36168 11.7269L16.5043 4.58333H12.3014V2.75H19.6348Z" fill="#262626"/>
</svg>
